<svg width="80" height="80" viewBox="0 0 80 80" fill="none" xmlns="http://www.w3.org/2000/svg">
<g clip-path="url(#clip0_14_1455)">
<path d="M21.7727 74.4711C21.7725 74.4711 21.7725 74.4711 21.7727 74.4711V74.4711ZM79.7236 53.4689C79.3714 54.2739 78.7288 54.893 77.9141 55.2117L73.3296 57.0055C72.9435 57.1564 72.54 57.2319 72.1369 57.2319C71.6891 57.2319 71.2416 57.1389 70.818 56.9536C70.1925 56.68 69.6817 56.2295 69.3344 55.6608L64.1197 57.8842C64.2855 58.8956 64.13 59.9619 63.6052 60.9163C62.9871 62.0402 61.9638 62.8531 60.7241 63.2053C60.7113 63.2089 60.6983 63.2114 60.6853 63.2148C61.1518 64.4697 61.0957 65.9072 60.4077 67.1581C59.5422 68.7316 57.9108 69.6223 56.2303 69.6223C55.8827 69.6223 55.5332 69.582 55.1877 69.5039C55.2282 70.348 55.0455 71.2103 54.6119 71.9984C53.7466 73.5719 52.1152 74.4627 50.4347 74.4627C50.2305 74.4627 50.0258 74.4486 49.8214 74.422C49.8849 75.3048 49.7052 76.2141 49.2486 77.0442C48.3833 78.6175 46.7519 79.5084 45.0714 79.5084C44.2968 79.5084 43.5119 79.3192 42.7864 78.9203L41.141 78.0155C40.5352 78.8627 39.6708 79.4853 38.653 79.7937C38.1941 79.9328 37.7257 80.0017 37.2603 80.0017C36.4893 80.0017 35.7269 79.8127 35.03 79.4398C33.9375 78.8556 33.1661 77.9028 32.7861 76.8164C32.585 76.9091 32.3766 76.9892 32.1608 77.0547C31.7021 77.1937 31.2335 77.2627 30.7683 77.2627C29.9972 77.2627 29.2347 77.0736 28.5378 76.7008C27.5493 76.172 26.8244 75.3412 26.4135 74.383C26.0963 74.5666 25.756 74.7159 25.3958 74.825C24.9369 74.9641 24.4686 75.033 24.0033 75.033C23.2324 75.033 22.4694 74.8438 21.7727 74.4711C20.6553 73.8734 19.8368 72.8731 19.4674 71.6541C19.2405 70.9056 19.2011 70.1319 19.3422 69.3873C19.2482 69.393 19.1542 69.3978 19.0605 69.3978C18.2894 69.3978 17.5271 69.2087 16.8302 68.8361C15.7128 68.2384 14.8939 67.238 14.5246 66.0189C14.1552 64.8 14.2808 63.5133 14.8785 62.3959L16.0793 60.1508C15.7685 59.4581 15.6294 58.6986 15.4941 57.9575C15.2424 56.5775 15.0603 55.9027 14.4805 55.6775C14.0521 55.5112 12.7594 54.9433 10.3407 53.858C9.71284 54.6555 8.75175 55.1114 7.75612 55.1114C7.30003 55.1114 6.83722 55.0161 6.39612 54.8144L1.91862 52.7681C0.271906 52.0156 -0.455594 50.0634 0.296906 48.4167L9.49909 28.2816C10.2516 26.6347 12.2039 25.9073 13.8505 26.66L18.328 28.7061C19.9747 29.4589 20.7022 31.4109 19.9497 33.0577L19.6711 33.6672L23.7243 35.537C23.7546 35.5511 23.7844 35.5664 23.8136 35.5827C25.4261 36.4903 27.0991 36.0952 29.2164 35.5948C31.9766 34.9428 35.3744 34.1419 39.3535 36.4905C44.8257 33.1036 49.0277 34.8169 52.1319 36.0856C54.3888 37.0081 55.8432 37.5367 57.2466 36.8069L61.0942 34.7473L61.0085 34.528C60.3488 32.8419 61.1838 30.9334 62.8697 30.2736L67.4544 28.4797C69.1408 27.8203 71.0488 28.6553 71.7088 30.3409C71.7088 30.3408 71.7089 30.3409 71.7088 30.3409L79.7757 50.9572C80.0943 51.772 80.0757 52.6639 79.7236 53.4689ZM8.47347 52.1537L17.6755 32.0186C17.8521 31.6322 17.6749 31.1566 17.2883 30.98L12.811 28.9339C12.6225 28.8477 12.41 28.8408 12.2125 28.9145C12.0149 28.9881 11.8586 29.1325 11.7727 29.3208L2.57034 49.4559C2.39378 49.8423 2.57097 50.3178 2.95737 50.4944L7.43488 52.5406C7.82144 52.7173 8.29691 52.5398 8.47347 52.1537ZM19.7277 66.7973C20.305 66.6223 20.7782 66.237 21.0611 65.712C21.0611 65.712 23.2918 61.5422 23.293 61.54C23.8693 60.4628 23.4461 59.0586 22.3685 58.4847C21.2935 57.9122 19.8914 58.3231 19.3103 59.4097C19.3103 59.4097 17.0836 63.573 17.0825 63.575C16.505 64.6548 16.931 66.0552 18.0088 66.6316C18.5375 66.9142 19.1482 66.973 19.7277 66.7973ZM26.008 71.3405C26.008 71.3405 29.0255 65.6987 29.0266 65.6964C29.6019 64.6209 29.1786 63.2144 28.1022 62.6411C27.0346 62.0725 25.633 62.4762 25.0486 63.5583L22.0253 69.21C21.7425 69.7384 21.6836 70.3491 21.8594 70.9289C22.0352 71.5088 22.423 71.9837 22.9516 72.2666C23.4802 72.5492 24.0903 72.6081 24.6703 72.4325C25.2503 72.2569 25.7255 71.8689 26.008 71.3405ZM32.773 73.5702C32.773 73.5702 35.2127 69.0081 35.2139 69.0058C35.7902 67.9281 35.3674 66.5242 34.2896 65.9503C33.2069 65.3737 31.8092 65.7945 31.2313 66.8753L28.7903 71.4397C28.203 72.5378 28.6186 73.9089 29.7168 74.4962C30.2453 74.7789 30.8557 74.838 31.4357 74.662C32.0155 74.4864 32.4905 74.0986 32.773 73.5702ZM39.2652 76.3092C39.2652 76.3092 41.4007 72.3161 41.4013 72.315C41.9721 71.2478 41.5477 69.8298 40.4769 69.2597C39.3944 68.6833 37.9967 69.1036 37.4186 70.1847L35.2822 74.1794C34.6955 75.2773 35.1111 76.6481 36.2089 77.2353C36.7377 77.5181 37.3483 77.5772 37.9278 77.4011C38.5075 77.2255 38.9825 76.8377 39.2652 76.3092ZM46.3397 72.8795L44.1805 71.692C44.1694 71.6859 44.1594 71.6786 44.1485 71.6723C44.0936 72.303 43.9122 72.9209 43.6058 73.4941L42.3561 75.8309L43.991 76.73C45.0824 77.3302 46.458 76.9308 47.058 75.8397C47.6233 74.812 47.2966 73.528 46.3397 72.8795ZM60.5077 56.6352L48.3738 49.7192C46.2994 48.5366 43.7185 49.5817 40.7307 50.7914C36.2253 52.6153 30.6182 54.8853 25.8755 48.3498C25.6671 48.0627 25.5905 47.7003 25.6649 47.3534C25.7393 47.0066 25.9578 46.7075 26.2658 46.5311C29.8671 44.4681 32.8935 42.2089 35.2613 39.8162C35.8664 39.2047 36.4799 38.642 37.0958 38.1289C34.4289 36.933 32.165 37.467 29.791 38.028C27.4749 38.575 25.0807 39.1406 22.6332 37.787L18.6316 35.9409L11.4649 51.6227C12.8942 52.2639 14.901 53.1592 15.3847 53.347C17.1785 54.0434 17.6242 55.7686 17.8885 57.1598C18.4432 56.5889 19.1371 56.1633 19.9227 55.9252C21.1421 55.5558 22.4285 55.6814 23.5458 56.2791C24.6599 56.8723 25.4786 57.8711 25.8491 59.09C25.9389 59.3856 25.9993 59.6852 26.0313 59.9853C27.1361 59.7441 28.276 59.8987 29.2796 60.4355C30.3936 61.0287 31.2124 62.0273 31.5828 63.2464C31.6041 63.3166 31.6235 63.3869 31.6414 63.4573C31.7083 63.4339 31.7755 63.4114 31.8438 63.3906C33.0628 63.0213 34.3496 63.147 35.4669 63.7445C36.581 64.338 37.3996 65.3366 37.7702 66.5555C37.7916 66.6256 37.8108 66.6961 37.8288 66.7666C37.8955 66.7431 37.9628 66.7205 38.031 66.6998C39.2496 66.3305 40.5364 66.4561 41.6541 67.0537C42.1983 67.3436 42.6714 67.7306 43.0569 68.1923L49.3543 71.6837C50.4449 72.2834 51.8211 71.8847 52.4214 70.7936C53.0158 69.7131 52.6116 68.3345 51.5203 67.7205L44.0307 63.505C43.4289 63.1664 43.2158 62.4042 43.5544 61.8025C43.893 61.2009 44.655 60.9877 45.2569 61.3263L55.1499 66.8434C56.2405 67.4433 57.6168 67.0442 58.2171 65.9531C58.8072 64.8802 58.4118 63.5138 57.3374 62.8936C57.2678 62.8588 48.4319 57.872 48.4319 57.872C47.8308 57.5325 47.6188 56.77 47.9583 56.1689C48.2977 55.568 49.06 55.3553 49.6614 55.6953L58.3599 60.6086C58.8685 60.8958 59.4655 60.9639 60.0405 60.8005C60.6328 60.6322 61.1208 60.2453 61.4146 59.7114C62.0055 58.6372 61.5988 57.257 60.5077 56.6352ZM68.3743 53.3525L62.0116 37.0919L58.413 39.018C55.8983 40.3259 53.5025 39.3469 51.1857 38.3998C48.0213 37.1064 44.7491 35.7691 40.0199 39.0383C39.0293 39.723 38.0261 40.5764 37.0383 41.5747C34.7971 43.8394 32.021 45.9817 28.7724 47.9548C32.116 51.5813 35.6975 50.1319 39.7925 48.4742C43.0825 47.1423 46.4844 45.7648 49.6119 47.5473L61.7457 54.4633C62.2763 54.7656 62.7282 55.1553 63.0936 55.6041L68.3743 53.3525ZM77.4472 51.8683C77.4472 51.8683 69.3841 31.2613 69.3805 31.2522C69.2277 30.8616 68.7557 30.655 68.3652 30.808L63.7807 32.6017C63.3852 32.7566 63.1816 33.2216 63.3364 33.6172L71.4033 54.2333C71.4786 54.4261 71.6268 54.5789 71.8199 54.6634C72.0132 54.7481 72.2258 54.7531 72.4185 54.6775L77.003 52.8838C77.1958 52.8083 77.3486 52.6603 77.4332 52.467C77.5177 52.2738 77.5228 52.0611 77.4472 51.8683ZM67.2467 32.8669C66.2877 32.8669 65.5053 33.6491 65.5053 34.6081C65.5053 35.5672 66.2877 36.3495 67.2467 36.3495C68.2058 36.3495 68.9882 35.5672 68.9882 34.6081C68.9882 33.6491 68.206 32.8669 67.2467 32.8669ZM13.8128 31.052C12.8525 30.9984 12.0308 31.7334 11.9772 32.6938C11.9236 33.6541 12.6586 34.4758 13.6189 34.5294C14.5792 34.583 15.401 33.848 15.4546 32.8877C15.5082 31.9273 14.7732 31.1055 13.8128 31.052ZM13.9882 22.837C13.3708 21.9995 13.2003 20.9911 13.5082 19.9975C14.3653 17.2295 16.3471 15.0753 18.8652 13.9642C17.8838 12.9628 17.2771 11.5928 17.2771 10.0833C17.2771 7.02344 19.7666 4.53391 22.8264 4.53391C25.8863 4.53391 28.3755 7.02328 28.3755 10.0831C28.3755 11.592 27.7694 12.9614 26.7889 13.9627C28.0238 14.5089 29.1355 15.3114 30.0544 16.3312C31.4544 14.5406 33.3257 13.1481 35.475 12.3259C33.9647 11.0416 33.0041 9.12953 33.0041 6.99641C33.0041 3.13859 36.1428 0 40.0007 0C43.8585 0 46.9971 3.13859 46.9971 6.99656C46.9971 9.12984 46.0363 11.0419 44.5261 12.3263C46.6755 13.1484 48.5467 14.5411 49.9468 16.3317C50.8658 15.3119 51.9774 14.5094 53.2122 13.9631C52.2318 12.9617 51.6255 11.5923 51.6255 10.0834C51.6255 7.02359 54.115 4.53422 57.1749 4.53422C60.2347 4.53422 62.7243 7.02359 62.7243 10.0834C62.7243 11.5931 62.1175 12.9631 61.1361 13.9645C63.6541 15.0756 65.636 17.2297 66.493 19.9978C66.8008 20.9914 66.6303 21.9998 66.013 22.8373C65.3953 23.6748 64.4825 24.1361 63.4424 24.1361H52.5508V25.183C52.5507 27.547 50.6272 29.4703 48.2635 29.4703H31.7377C29.3736 29.4703 27.4505 27.547 27.4505 25.183V24.1358H16.5588C15.5182 24.1356 14.6053 23.6745 13.9882 22.837ZM57.1736 13.1327H57.1747H57.176C58.8568 13.132 60.2243 11.7644 60.2243 10.0834C60.2243 8.40203 58.8563 7.03422 57.1749 7.03422C55.4935 7.03422 54.1255 8.40203 54.1255 10.0834C54.1255 11.7644 55.4928 13.132 57.1736 13.1327ZM51.3447 18.575C51.8096 19.5311 52.1594 20.5562 52.3727 21.6361H63.4424C63.6813 21.6361 63.8588 21.5464 64.0008 21.3539C64.1425 21.1617 64.1757 20.9656 64.105 20.7373C63.1597 17.6847 60.3755 15.6336 57.1766 15.6328C57.1761 15.6328 57.1755 15.6328 57.175 15.6328C57.1746 15.6328 57.1741 15.6328 57.1736 15.6328C54.8402 15.6331 52.7097 16.7227 51.3447 18.575ZM39.9974 11.493H40.0005H40.0038C42.4818 11.4913 44.4972 9.47484 44.4972 6.99656C44.4971 4.51719 42.48 2.5 40.0007 2.5C37.5213 2.5 35.5041 4.51719 35.5041 6.99656C35.5041 9.47484 37.5196 11.4913 39.9974 11.493ZM29.9505 22.9542V25.1828C29.9505 26.1684 30.7522 26.9702 31.7377 26.9702H48.2633C49.2489 26.9702 50.0505 26.1683 50.0507 25.1828V22.9542C49.4711 17.8416 45.1635 13.9945 40.0036 13.993C40.0027 13.993 40.0016 13.993 40.0005 13.993C39.9994 13.993 39.9983 13.9928 39.9972 13.9928C34.8374 13.9945 30.5297 17.8417 29.9505 22.9542ZM22.8252 13.1323H22.8263C22.8263 13.1323 22.8271 13.1323 22.8274 13.1323C24.5083 13.1317 25.8755 11.7641 25.8755 10.0831C25.8755 8.40172 24.5077 7.03375 22.8263 7.03375C21.1449 7.03375 19.7769 8.40172 19.7769 10.0831C19.7769 11.7642 21.1443 13.1317 22.8252 13.1323ZM16.0003 21.3538C16.1422 21.5461 16.3196 21.6358 16.5586 21.6358H27.6285C27.8418 20.5561 28.1916 19.5308 28.6563 18.5748C27.2913 16.7225 25.1607 15.633 22.8274 15.6325C22.8271 15.6325 22.8266 15.6325 22.8261 15.6325C22.8257 15.6325 22.825 15.6325 22.8244 15.6325C19.6253 15.6333 16.8411 17.6844 15.8958 20.737C15.8253 20.9652 15.8585 21.1613 16.0003 21.3538Z" fill="#2563EB"/>
<path d="M29.9505 22.9542V25.1828C29.9505 26.1684 30.7522 26.9702 31.7377 26.9702H48.2633C49.2489 26.9702 50.0505 26.1683 50.0507 25.1828V22.9542C49.4711 17.8416 45.1635 13.9945 40.0036 13.993H40.0005L39.9972 13.9928C34.8374 13.9945 30.5297 17.8417 29.9505 22.9542Z" fill="#A8C1F7"/>
<path d="M51.3447 18.575C51.8096 19.5311 52.1594 20.5562 52.3727 21.6361H63.4424C63.6813 21.6361 63.8588 21.5464 64.0008 21.3539C64.1425 21.1617 64.1757 20.9656 64.105 20.7373C63.1597 17.6847 60.3755 15.6336 57.1766 15.6328C57.1761 15.6328 57.1755 15.6328 57.175 15.6328C57.1746 15.6328 57.1741 15.6328 57.1736 15.6328C54.8402 15.6331 52.7097 16.7227 51.3447 18.575Z" fill="#A8C1F7"/>
<path d="M16.0003 21.3538C16.1422 21.5461 16.3196 21.6358 16.5586 21.6358H27.6285C27.8418 20.5561 28.1916 19.5308 28.6563 18.5748C27.2913 16.7225 25.1607 15.633 22.8274 15.6325C22.8271 15.6325 22.8266 15.6325 22.8261 15.6325C22.8257 15.6325 22.825 15.6325 22.8244 15.6325C19.6253 15.6333 16.8411 17.6844 15.8958 20.737C15.8253 20.9652 15.8585 21.1613 16.0003 21.3538Z" fill="#A8C1F7"/>
<path fill-rule="evenodd" clip-rule="evenodd" d="M77.4472 51.8683L69.3805 31.2522C69.2277 30.8616 68.7557 30.655 68.3652 30.808L63.7807 32.6017C63.3852 32.7566 63.1816 33.2216 63.3364 33.6172L71.4033 54.2333C71.4786 54.4261 71.6268 54.5789 71.8199 54.6634C72.0132 54.7481 72.2258 54.7531 72.4185 54.6775L77.003 52.8838C77.1958 52.8083 77.3486 52.6603 77.4332 52.467C77.5177 52.2738 77.5228 52.0611 77.4472 51.8683ZM65.5053 34.6081C65.5053 33.6491 66.2877 32.8669 67.2467 32.8669C68.206 32.8669 68.9882 33.6491 68.9882 34.6081C68.9882 35.5672 68.2058 36.3495 67.2467 36.3495C66.2877 36.3495 65.5053 35.5672 65.5053 34.6081Z" fill="#D3E0FB"/>
<path fill-rule="evenodd" clip-rule="evenodd" d="M8.47347 52.1537L17.6755 32.0186C17.8521 31.6322 17.6749 31.1566 17.2883 30.98L12.811 28.9339C12.6225 28.8477 12.41 28.8408 12.2125 28.9145C12.0149 28.9881 11.8586 29.1325 11.7727 29.3208L2.57034 49.4559C2.39378 49.8423 2.57097 50.3178 2.95737 50.4944L7.43488 52.5406C7.82144 52.7173 8.29691 52.5398 8.47347 52.1537ZM11.9772 32.6938C12.0308 31.7334 12.8525 30.9984 13.8128 31.052C14.7732 31.1055 15.5082 31.9273 15.4546 32.8877C15.401 33.848 14.5792 34.583 13.6189 34.5294C12.6586 34.4758 11.9236 33.6541 11.9772 32.6938Z" fill="#FEF6DB"/>
</g>
<defs>
<clipPath id="clip0_14_1455">
<rect width="80" height="80" fill="white"/>
</clipPath>
</defs>
</svg>
