<svg width="80" height="80" viewBox="0 0 80 80" fill="none" xmlns="http://www.w3.org/2000/svg">
<path d="M43.9456 64.3519C43.6698 64.3519 43.4052 64.4615 43.2102 64.6565C43.0152 64.8515 42.9056 65.1161 42.9056 65.3919V71.2575C42.9042 72.4665 42.4234 73.6255 41.5685 74.4804C40.7136 75.3353 39.5546 75.8161 38.3456 75.8175H10.9408C9.73181 75.8161 8.57274 75.3353 7.71787 74.4804C6.863 73.6255 6.38214 72.4665 6.38078 71.2575V8.74229C6.38214 7.53332 6.863 6.37426 7.71787 5.51938C8.57274 4.66451 9.73181 4.18365 10.9408 4.18229H14.3256L15.5502 7.23189C15.8043 7.87049 16.2446 8.41787 16.8139 8.80281C17.3833 9.18776 18.0553 9.39246 18.7425 9.39029H30.7905C31.4777 9.3924 32.1497 9.18766 32.719 8.80272C33.2883 8.41778 33.7285 7.87044 33.9825 7.23189L35.207 4.18213H38.3456C39.5546 4.18349 40.7136 4.66435 41.5685 5.51922C42.4234 6.3741 42.9042 7.53316 42.9056 8.74214V16.1257C42.9056 16.4015 43.0152 16.666 43.2102 16.861C43.4052 17.0561 43.6698 17.1657 43.9456 17.1657C44.2214 17.1657 44.4859 17.0561 44.681 16.861C44.876 16.666 44.9856 16.4015 44.9856 16.1257V8.74229C44.9836 6.98187 44.2834 5.29411 43.0386 4.0493C41.7938 2.80449 40.106 2.10429 38.3456 2.10229H10.9408C9.18035 2.10429 7.4926 2.80449 6.24779 4.0493C5.00298 5.29411 4.30277 6.98187 4.30078 8.74229V71.2575C4.30277 73.0179 5.00298 74.7057 6.24779 75.9505C7.4926 77.1953 9.18035 77.8955 10.9408 77.8975H38.3456C40.106 77.8955 41.7938 77.1953 43.0386 75.9505C44.2834 74.7057 44.9836 73.0179 44.9856 71.2575V65.3919C44.9856 65.1161 44.876 64.8515 44.681 64.6565C44.4859 64.4615 44.2214 64.3519 43.9456 64.3519ZM32.9656 4.18229L32.0521 6.45701C31.9517 6.70948 31.7776 6.92588 31.5525 7.07806C31.3274 7.23025 31.0618 7.31116 30.7901 7.31029H18.7421C18.4704 7.31116 18.2047 7.23025 17.9796 7.07806C17.7545 6.92588 17.5804 6.70948 17.48 6.45701L16.567 4.18229H32.9656Z" fill="#2563EB"/>
<path d="M69.6674 20.0498C68.8262 19.2713 66.6673 19.1745 66.8636 20.7637C66.8895 20.8978 66.9416 21.0255 67.0168 21.1395C67.0921 21.2535 67.189 21.3515 67.3022 21.428C67.4153 21.5045 67.5424 21.558 67.6762 21.5853C67.81 21.6127 67.9479 21.6135 68.082 21.5876C68.1276 21.5786 68.1746 21.5799 68.2196 21.5912C68.2647 21.6026 68.3066 21.6238 68.3425 21.6533C68.3784 21.6827 68.4073 21.7198 68.4272 21.7618C68.4471 21.8038 68.4574 21.8496 68.4575 21.8961V53.8065C68.4573 53.8794 68.4318 53.95 68.3854 54.0062C68.3391 54.0625 68.2746 54.1009 68.2031 54.1151L43.9455 58.8301L19.6895 54.1154C19.6177 54.1015 19.5529 54.0631 19.5062 54.0068C19.4595 53.9504 19.4338 53.8796 19.4335 53.8065V21.8961C19.4332 21.8497 19.4433 21.8039 19.463 21.762C19.4827 21.7201 19.5117 21.6832 19.5476 21.654C19.5835 21.6241 19.6256 21.6026 19.6709 21.5911C19.7161 21.5796 19.7634 21.5784 19.8092 21.5876C21.1753 21.8041 21.5402 19.8469 20.2034 19.5453C19.8568 19.4783 19.4997 19.4886 19.1576 19.5757C18.8155 19.6628 18.4968 19.8245 18.2245 20.0491C17.9522 20.2737 17.7329 20.5558 17.5823 20.8751C17.4317 21.1944 17.3536 21.543 17.3535 21.8961V53.8065C17.3546 54.3619 17.5483 54.8998 17.9016 55.3284C18.2549 55.757 18.7459 56.0498 19.291 56.1569L43.7471 60.9105C43.8127 60.9219 43.879 60.9283 43.9455 60.9297C44.0121 60.9285 44.0784 60.9221 44.1439 60.9105L68.6014 56.1567C69.1461 56.0494 69.6368 55.7565 69.9898 55.3279C70.3428 54.8994 70.5363 54.3617 70.5374 53.8065V21.8961C70.5379 21.5431 70.4602 21.1945 70.3098 20.8752C70.1593 20.556 69.94 20.2741 69.6674 20.0498Z" fill="#2563EB"/>
<path d="M25.2056 16.0711C24.8843 16.0615 24.5644 16.1162 24.2647 16.2321C23.9649 16.348 23.6914 16.5227 23.4602 16.7459C23.229 16.9692 23.0448 17.2364 22.9185 17.5319C22.7921 17.8275 22.7262 18.1453 22.7246 18.4666V49.3391C22.7226 49.9607 22.9635 50.5585 23.3959 51.005C23.8283 51.4516 24.418 51.7116 25.0393 51.7297C36.1056 52.1039 43.2513 57.2284 43.3441 57.2897C43.5221 57.4154 43.7349 57.4823 43.9528 57.4812C44.1706 57.48 44.3827 57.4108 44.5593 57.2833C44.6307 57.2314 51.8073 52.0993 62.8537 51.7297C63.4752 51.7118 64.065 51.4518 64.4975 51.0052C64.93 50.5586 65.1709 49.9608 65.1689 49.3391V18.4666C65.196 17.15 64.0078 15.993 62.6878 16.0711C52.7827 16.427 45.9678 20.305 43.947 21.6052C41.9264 20.305 35.1109 16.427 25.2056 16.0711ZM24.8045 49.3391V18.4666C24.8045 18.4239 24.8131 18.3817 24.8299 18.3425C24.8467 18.3032 24.8713 18.2678 24.9022 18.2383C34.1313 18.1626 41.3435 22.4434 42.9064 23.414V54.5566C40.0718 52.9246 33.7621 49.9407 25.1088 49.6508C25.0274 49.6488 24.9501 49.6151 24.8932 49.5569C24.8364 49.4986 24.8045 49.4205 24.8045 49.3391ZM62.7619 18.1497C62.8045 18.1478 62.847 18.1546 62.8868 18.1697C62.9267 18.1848 62.963 18.2079 62.9935 18.2376C63.0241 18.2672 63.0483 18.3029 63.0646 18.3422C63.0809 18.3816 63.089 18.4239 63.0883 18.4665V49.3391C63.0882 49.4204 63.0564 49.4985 62.9997 49.5568C62.9429 49.615 62.8656 49.6487 62.7843 49.6508C54.1312 49.9407 47.8213 52.9239 44.9867 54.5566V25.2161V23.4142C46.6798 22.3257 53.2888 18.49 62.7619 18.1497Z" fill="#2563EB"/>
<path d="M24.8045 49.3391V18.4666C24.8045 18.4239 24.8131 18.3817 24.8299 18.3425C24.8467 18.3032 24.8713 18.2678 24.9022 18.2383C34.1313 18.1626 41.3435 22.4434 42.9064 23.414V54.5566C40.0718 52.9246 33.7621 49.9407 25.1088 49.6508C25.0274 49.6488 24.9501 49.6151 24.8932 49.5569C24.8364 49.4986 24.8045 49.4205 24.8045 49.3391Z" fill="#A8C1F7"/>
<path d="M62.7619 18.1497C62.8045 18.1478 62.847 18.1546 62.8868 18.1697C62.9267 18.1848 62.963 18.2079 62.9935 18.2376C63.0241 18.2672 63.0483 18.3029 63.0646 18.3422C63.0809 18.3816 63.089 18.4239 63.0883 18.4665V49.3391C63.0882 49.4204 63.0564 49.4985 62.9997 49.5568C62.9429 49.615 62.8656 49.6487 62.7843 49.6508C54.1312 49.9407 47.8213 52.9239 44.9867 54.5566V25.2161V23.4142C46.6798 22.3257 53.2888 18.49 62.7619 18.1497Z" fill="#A8C1F7"/>
<path d="M13.9512 72.6906C13.9512 72.9665 14.0607 73.231 14.2558 73.426C14.4508 73.6211 14.7153 73.7306 14.9912 73.7306H34.2934C34.5692 73.7306 34.8338 73.6211 35.0288 73.426C35.2238 73.231 35.3334 72.9665 35.3334 72.6906C35.3334 72.4148 35.2238 72.1503 35.0288 71.9552C34.8338 71.7602 34.5692 71.6506 34.2934 71.6506H14.9912C14.7153 71.6506 14.4508 71.7602 14.2558 71.9552C14.0607 72.1503 13.9512 72.4148 13.9512 72.6906Z" fill="#2563EB"/>
<path d="M38.7548 27.04C35.7764 25.8438 32.6546 25.0413 29.4686 24.6527C28.0983 24.5303 27.8526 26.5021 29.2154 26.7167C32.2219 27.0833 35.1676 27.8405 37.9782 28.9692C39.2593 29.445 40.0202 27.598 38.7548 27.04Z" fill="#2563EB"/>
<path d="M38.7548 35.7855C35.7764 34.5891 32.6546 33.7866 29.4685 33.3981C28.0984 33.2749 27.8525 35.2479 29.2154 35.4621C32.2218 35.8285 35.1676 36.5857 37.9781 37.7143C39.2592 38.1903 40.0202 36.3431 38.7548 35.7855Z" fill="#2563EB"/>
<path d="M38.7546 44.5306C35.7762 43.3345 32.6544 42.532 29.4684 42.1434C28.0977 42.0239 27.8532 43.992 29.2153 44.2074C32.2217 44.5738 35.1675 45.331 37.978 46.4597C39.2591 46.9354 40.0201 45.0881 38.7546 44.5306Z" fill="#2563EB"/>
<path d="M49.5254 29.0452C49.6584 29.0451 49.7901 29.0195 49.9134 28.9697C52.724 27.841 55.6698 27.0838 58.6763 26.7172C58.8141 26.7035 58.9479 26.6623 59.0696 26.5962C59.1914 26.53 59.2987 26.4402 59.3853 26.332C59.4718 26.2238 59.5359 26.0994 59.5737 25.9661C59.6115 25.8328 59.6223 25.6933 59.6054 25.5557C59.5886 25.4182 59.5444 25.2854 59.4755 25.1652C59.4066 25.045 59.3143 24.9398 59.2042 24.8557C59.0941 24.7716 58.9682 24.7104 58.8341 24.6756C58.7 24.6408 58.5602 24.6332 58.4231 24.6532C55.2371 25.0416 52.1153 25.8439 49.1369 27.0399C48.9126 27.13 48.7267 27.2953 48.6111 27.5075C48.4955 27.7198 48.4574 27.9656 48.5034 28.2029C48.5493 28.4401 48.6765 28.654 48.863 28.8077C49.0495 28.9613 49.2837 29.0453 49.5254 29.0451V29.0452Z" fill="#2563EB"/>
<path d="M49.525 37.7905C49.658 37.7905 49.7897 37.7649 49.913 37.715C52.7236 36.5863 55.6694 35.8292 58.6759 35.4628C58.8137 35.4491 58.9475 35.4079 59.0692 35.3418C59.191 35.2756 59.2983 35.1858 59.3849 35.0776C59.4714 34.9694 59.5355 34.845 59.5733 34.7117C59.6111 34.5784 59.6219 34.4389 59.605 34.3013C59.5882 34.1638 59.544 34.031 59.4751 33.9108C59.4062 33.7906 59.314 33.6854 59.2038 33.6013C59.0937 33.5172 58.9678 33.456 58.8337 33.4212C58.6996 33.3864 58.5599 33.3788 58.4227 33.3988C55.2367 33.787 52.1149 34.5894 49.1365 35.7855C48.9123 35.8756 48.7265 36.041 48.611 36.2532C48.4955 36.4654 48.4574 36.7111 48.5034 36.9483C48.5493 37.1855 48.6764 37.3993 48.8628 37.553C49.0493 37.7067 49.2834 37.7906 49.525 37.7905Z" fill="#2563EB"/>
<path d="M49.5238 46.5358C49.6568 46.5356 49.7885 46.51 49.9118 46.4603C52.7224 45.3315 55.6682 44.5743 58.6747 44.2079C58.8126 44.1942 58.9463 44.153 59.0681 44.0869C59.1898 44.0207 59.2971 43.9309 59.3837 43.8227C59.4703 43.7145 59.5343 43.5901 59.5721 43.4568C59.6099 43.3235 59.6207 43.184 59.6039 43.0465C59.587 42.9089 59.5428 42.7762 59.4739 42.6559C59.405 42.5357 59.3128 42.4305 59.2027 42.3464C59.0925 42.2623 58.9667 42.2011 58.8326 42.1663C58.6984 42.1316 58.5587 42.1239 58.4216 42.1439C55.2355 42.5325 52.1138 43.335 49.1353 44.5311C48.911 44.6211 48.7249 44.7864 48.6093 44.9987C48.4936 45.211 48.4554 45.4569 48.5014 45.6942C48.5474 45.9315 48.6746 46.1454 48.8612 46.2991C49.0478 46.4528 49.2821 46.5367 49.5238 46.5364V46.5358Z" fill="#2563EB"/>
</svg>
