<svg width="80" height="80" viewBox="0 0 80 80" fill="none" xmlns="http://www.w3.org/2000/svg">
<path d="M72.6355 5H37.4896C33.429 5 30.1251 8.30383 30.1251 12.3645V34.9103L23.5992 31.665C23.3789 31.5552 23.1549 31.4514 22.9291 31.3532C24.845 29.353 26.026 26.6431 26.026 23.6615C26.026 17.5244 21.0333 12.5311 14.8962 12.5311C8.75854 12.5311 3.76587 17.5244 3.76587 23.6615C3.76587 26.9965 5.24231 29.9921 7.57385 32.0337C3.28003 34.4495 0 39.162 0 45V52.5311C0 55.7733 2.1051 58.5327 5.02075 59.5136V72.6148C5.02075 73.9087 6.06995 74.9585 7.3645 74.9585H22.4268C23.7213 74.9585 24.7705 73.9087 24.7705 72.6148V46.2811L32.2742 50.0324C35.1459 51.4679 39.0411 50.6122 40.8026 47.3438H49.2059L40.3076 71.8134C39.8651 73.0298 40.4932 74.375 41.7096 74.8169C43.1 75.3229 44.3365 74.4507 44.7131 73.4155L54.1937 47.3438H55.8368L65.4144 73.4229C65.7782 74.4122 67.0056 75.3351 68.4229 74.8145C69.6375 74.3683 70.2612 73.0219 69.8145 71.8066L60.8301 47.3438H72.6355C76.6174 47.3438 80 44.1315 80 39.9793V12.3645C80 8.21167 76.6174 5 72.6355 5ZM8.45337 23.6615C8.45337 20.1086 11.3434 17.2186 14.8956 17.2186C18.4485 17.2186 21.3385 20.1086 21.3385 23.6615C21.3385 27.2137 18.4485 30.1038 14.8956 30.1038C11.3434 30.1038 8.45337 27.2137 8.45337 23.6615ZM36.7969 44.8377C36.7908 44.8547 36.7847 44.8724 36.7792 44.8901C36.6193 45.3363 36.2579 45.7123 35.8154 45.8942C35.3473 46.0846 34.8206 46.0645 34.3707 45.8398C29.9139 43.6102 23.4741 40.3931 23.4741 40.3931C21.9189 39.6155 20.083 40.7483 20.083 42.4896V70.271H9.70825V57.5519C9.70825 56.2579 8.65845 55.2081 7.3645 55.2081C5.88806 55.2081 4.6875 54.0076 4.6875 52.5311V45C4.6875 39.2731 9.35059 34.7919 14.8956 34.7919H16.9666C18.5376 34.7919 20.1068 35.1605 21.5088 35.8606C21.5088 35.8606 33.1342 41.6418 36.095 43.1165C36.7291 43.4314 37.0306 44.1711 36.7969 44.8377ZM75.3125 39.9793C75.3125 40.6952 75.0348 41.3672 74.5294 41.8726C74.032 42.3706 73.3417 42.6563 72.6355 42.6563H41.3123C41.308 42.6434 41.3049 42.6306 41.3007 42.6184L47.1173 30.9857C47.6959 29.8279 47.2272 28.4204 46.0693 27.8412C44.9121 27.2626 43.504 27.7313 42.9248 28.8892L37.9639 38.8104C37.0392 38.3496 35.9644 37.8143 34.8126 37.2418V12.3645C34.8126 10.8887 36.0132 9.6875 37.4896 9.6875H72.6355C73.3417 9.6875 74.032 9.97315 74.53 10.4724C75.0348 10.9766 75.3125 11.6486 75.3125 12.3645V39.9793Z" fill="#2563EB"/>
<path d="M75.3125 39.9793C75.3125 40.6952 75.0348 41.3672 74.5294 41.8726C74.032 42.3706 73.3417 42.6563 72.6355 42.6563H41.3123C41.308 42.6434 41.3049 42.6306 41.3007 42.6184L47.1173 30.9857C47.6959 29.8279 47.2272 28.4204 46.0693 27.8412C44.9121 27.2626 43.504 27.7313 42.9248 28.8892L37.9639 38.8104C37.0392 38.3496 35.9644 37.8143 34.8126 37.2418V12.3645C34.8126 10.8887 36.0132 9.6875 37.4896 9.6875H72.6355C73.3417 9.6875 74.032 9.97315 74.53 10.4724C75.0348 10.9766 75.3125 11.6486 75.3125 12.3645V39.9793Z" fill="#A8C1F7"/>
<path d="M67.6141 15.0415H42.5098C41.2152 15.0415 40.166 16.0907 40.166 17.3853C40.166 18.6798 41.2152 19.729 42.5098 19.729H67.6141C68.9081 19.729 69.9579 18.6798 69.9579 17.3853C69.9579 16.0907 68.9087 15.0415 67.6141 15.0415Z" fill="#2563EB"/>
<path d="M67.615 23.8281H55.0625C53.7686 23.8281 52.7188 24.8773 52.7188 26.1719C52.7188 27.4664 53.7686 28.5156 55.0625 28.5156H67.615C68.9089 28.5156 69.9587 27.4664 69.9587 26.1719C69.9587 24.8773 68.9095 23.8281 67.615 23.8281Z" fill="#2563EB"/>
<path d="M67.615 32.6147H55.0625C53.7686 32.6147 52.7188 33.6639 52.7188 34.9585C52.7188 36.2524 53.7686 37.3022 55.0625 37.3022H67.615C68.9089 37.3022 69.9587 36.2524 69.9587 34.9585C69.9587 33.6639 68.9095 32.6147 67.615 32.6147Z" fill="#2563EB"/>
</svg>
