<svg width="80" height="80" viewBox="0 0 80 80" fill="none" xmlns="http://www.w3.org/2000/svg">
<path d="M80 40C80 42.5151 79.7628 45.0247 79.2915 47.4953L71.4332 45.9962C71.8102 44.0197 72 42.0121 72 40H80Z" fill="#A8C1F7"/>
<path d="M11.7157 68.2843C9.93726 66.5058 8.33049 64.5636 6.91678 62.4833L13.5334 57.9867C14.6644 59.6508 15.9498 61.2046 17.3726 62.6274L11.7157 68.2843Z" fill="#A8C1F7"/>
<path d="M50.3528 78.637C47.9233 79.288 45.4379 79.7084 42.9295 79.8926L42.3436 71.9141C44.3503 71.7667 46.3387 71.4304 48.2822 70.9096L50.3528 78.637Z" fill="#A8C1F7"/>
<path d="M5.35898 20C6.61655 17.8218 8.07675 15.7671 9.72019 13.8632L15.7762 19.0905C14.4614 20.6137 13.2932 22.2575 12.2872 24L5.35898 20Z" fill="#A8C1F7"/>
<path d="M78.637 50.3528C77.9861 52.7822 77.1074 55.1448 76.0127 57.4092L68.8102 53.9274C69.6859 52.1159 70.3889 50.2258 70.9096 48.2822L78.637 50.3528Z" fill="#A8C1F7"/>
<path d="M5.35898 60C4.10142 57.8218 3.05209 55.5299 2.22494 53.1547L9.77996 50.5237C10.4417 52.4239 11.2811 54.2575 12.2872 56L5.35898 60Z" fill="#A8C1F7"/>
<path d="M40 80C37.4849 80 34.9753 79.7628 32.5047 79.2915L34.0038 71.4332C35.9803 71.8102 37.9879 72 40 72V80Z" fill="#A8C1F7"/>
<path d="M11.7157 11.7157C13.4942 9.93726 15.4364 8.3305 17.5167 6.91678L22.0133 13.5334C20.3492 14.6644 18.7954 15.9498 17.3726 17.3726L11.7157 11.7157Z" fill="#A8C1F7"/>
<path d="M74.641 60C73.3834 62.1782 71.9232 64.2329 70.2798 66.1368L64.2238 60.9095C65.5386 59.3863 66.7068 57.7425 67.7128 56L74.641 60Z" fill="#A8C1F7"/>
<path d="M1.36297 50.3528C0.712002 47.9233 0.291625 45.4379 0.107421 42.9295L8.08594 42.3436C8.2333 44.3503 8.5696 46.3387 9.09037 48.2822L1.36297 50.3528Z" fill="#A8C1F7"/>
<path d="M20 74.641C17.8218 73.3834 15.7671 71.9232 13.8632 70.2798L19.0905 64.2238C20.6137 65.5386 22.2575 66.7068 24 67.7128L20 74.641Z" fill="#A8C1F7"/>
<path d="M78.637 29.6472C79.288 32.0767 79.7084 34.5621 79.8926 37.0705L71.9141 37.6564C71.7667 35.6497 71.4304 33.6613 70.9096 31.7178L78.637 29.6472Z" fill="#A8C1F7"/>
<path d="M74.641 20C75.8986 22.1782 76.9479 24.4701 77.7751 26.8453L70.22 29.4763C69.5583 27.5761 68.7189 25.7425 67.7128 24L74.641 20Z" fill="#A8C1F7"/>
<path d="M68.2843 11.7157C70.0628 13.4942 71.6695 15.4365 73.0832 17.5167L66.4666 22.0133C65.3356 20.3492 64.0502 18.7954 62.6274 17.3726L68.2843 11.7157Z" fill="#A8C1F7"/>
<path d="M60 5.35898C62.1782 6.61655 64.2329 8.07675 66.1368 9.7202L60.9095 15.7762C59.3863 14.4614 57.7425 13.2932 56 12.2872L60 5.35898Z" fill="#A8C1F7"/>
<path d="M50.3528 1.36297C52.7822 2.01394 55.1448 2.89259 57.4093 3.98726L53.9274 11.1898C52.1159 10.3141 50.2258 9.61115 48.2822 9.09038L50.3528 1.36297Z" fill="#A8C1F7"/>
<path d="M29.6472 1.36297C32.0767 0.712001 34.5621 0.291624 37.0705 0.10742L37.6564 8.08594C35.6497 8.2333 33.6613 8.5696 31.7178 9.09037L29.6472 1.36297Z" fill="#A8C1F7"/>
<path d="M40 0C42.5151 2.99927e-08 45.0247 0.237221 47.4953 0.708511L45.9962 8.56681C44.0197 8.18978 42.0121 8 40 8V0Z" fill="#A8C1F7"/>
<path d="M68.2843 68.2843C66.5058 70.0627 64.5636 71.6695 62.4833 73.0832L57.9867 66.4666C59.6508 65.3356 61.2046 64.0502 62.6274 62.6274L68.2843 68.2843Z" fill="#A8C1F7"/>
<path d="M0 40C2.1988e-07 37.4849 0.23722 34.9753 0.708509 32.5047L8.56681 34.0038C8.18978 35.9803 8 37.9879 8 40H0Z" fill="#A8C1F7"/>
<path d="M29.6472 78.637C27.2178 77.9861 24.8552 77.1074 22.5908 76.0127L26.0726 68.8102C27.8841 69.6859 29.7742 70.3889 31.7178 70.9096L29.6472 78.637Z" fill="#A8C1F7"/>
<path d="M20 5.35898C22.1782 4.10142 24.4701 3.05209 26.8453 2.22495L29.4763 9.77996C27.5761 10.4417 25.7425 11.2811 24 12.2872L20 5.35898Z" fill="#A8C1F7"/>
<path d="M60 74.641C57.8218 75.8986 55.5299 76.9479 53.1547 77.7751L50.5237 70.22C52.4239 69.5583 54.2575 68.7189 56 67.7128L60 74.641Z" fill="#A8C1F7"/>
<path d="M60 74.641C57.8218 75.8986 55.5299 76.9479 53.1547 77.7751L50.5237 70.22C52.4239 69.5583 54.2575 68.7189 56 67.7128L60 74.641Z" fill="#A8C1F7"/>
<path d="M1.36297 29.6472C2.01393 27.2178 2.89258 24.8552 3.98725 22.5908L11.1898 26.0726C10.3141 27.8841 9.61115 29.7742 9.09037 31.7178L1.36297 29.6472Z" fill="#A8C1F7"/>
<path d="M44.476 32.0212C45.5284 32.0212 46.3249 32.4408 46.8653 33.2799C47.4058 34.1048 47.676 35.271 47.676 36.7786C47.676 38.2861 47.4129 39.4666 46.8867 40.3199C46.3747 41.159 45.5711 41.5786 44.476 41.5786C43.8076 41.5786 43.2387 41.3866 42.7693 41.0026C42.3 40.6186 41.9444 40.071 41.7027 39.3599C41.4751 38.6346 41.3613 37.7741 41.3613 36.7786C41.3613 35.271 41.6102 34.1048 42.108 33.2799C42.6058 32.4408 43.3951 32.0212 44.476 32.0212ZM44.476 33.3439C43.9356 33.3439 43.5373 33.6355 43.2813 34.2186C43.0395 34.7875 42.9187 35.6408 42.9187 36.7786C42.9187 37.9164 43.0395 38.7768 43.2813 39.3599C43.5373 39.943 43.9356 40.2346 44.476 40.2346C45.0307 40.2346 45.4431 39.9501 45.7133 39.3812C45.9836 38.7981 46.1187 37.9306 46.1187 36.7786C46.1187 35.6408 45.9836 34.7875 45.7133 34.2186C45.4431 33.6355 45.0307 33.3439 44.476 33.3439ZM54.2253 32.2346L45.7773 47.4666H44.1347L52.5827 32.2346H54.2253ZM53.7987 38.1226C54.4955 38.1226 55.0787 38.3146 55.548 38.6986C56.0173 39.0684 56.3729 39.6088 56.6147 40.3199C56.8707 41.0168 56.9987 41.8701 56.9987 42.8799C56.9987 44.3875 56.7356 45.5679 56.2093 46.4212C55.6973 47.2604 54.8938 47.6799 53.7987 47.6799C53.1302 47.6799 52.5613 47.4879 52.092 47.1039C51.6227 46.7199 51.2671 46.1724 51.0253 45.4612C50.7978 44.7359 50.684 43.8755 50.684 42.8799C50.684 41.3724 50.9329 40.2061 51.4307 39.3812C51.9284 38.5421 52.7178 38.1226 53.7987 38.1226ZM53.7987 39.4666C53.2582 39.4666 52.86 39.751 52.604 40.3199C52.3622 40.8888 52.2413 41.7421 52.2413 42.8799C52.2413 44.0319 52.3622 44.8995 52.604 45.4826C52.86 46.0515 53.2582 46.3359 53.7987 46.3359C54.3533 46.3359 54.7658 46.0515 55.036 45.4826C55.3062 44.9137 55.4413 44.0461 55.4413 42.8799C55.4413 41.7421 55.3062 40.8888 55.036 40.3199C54.7658 39.751 54.3533 39.4666 53.7987 39.4666Z" fill="#2563EB"/>
<path d="M33.9793 39.8507C33.9793 41.0738 33.8798 42.1689 33.6807 43.136C33.4958 44.1031 33.19 44.928 32.7633 45.6107C32.3509 46.2791 31.8033 46.7911 31.1207 47.1467C30.4522 47.5022 29.6273 47.68 28.646 47.68C27.4229 47.68 26.4202 47.3671 25.638 46.7413C24.8558 46.1156 24.2727 45.2196 23.8887 44.0533C23.5189 42.8871 23.334 41.4862 23.334 39.8507C23.334 38.2009 23.5047 36.7929 23.846 35.6267C24.1873 34.4604 24.7491 33.5644 25.5313 32.9387C26.3135 32.3129 27.3518 32 28.646 32C29.8691 32 30.8718 32.3129 31.654 32.9387C32.4362 33.5502 33.0193 34.4462 33.4033 35.6267C33.7873 36.7929 33.9793 38.2009 33.9793 39.8507ZM26.534 39.8507C26.534 41.0027 26.598 41.9698 26.726 42.752C26.854 43.52 27.0673 44.1031 27.366 44.5013C27.6789 44.8853 28.1055 45.0773 28.646 45.0773C29.1864 45.0773 29.606 44.8853 29.9047 44.5013C30.2175 44.1173 30.438 43.5413 30.566 42.7733C30.7082 41.9911 30.7793 41.0169 30.7793 39.8507C30.7793 38.6844 30.7082 37.7173 30.566 36.9493C30.438 36.1671 30.2175 35.584 29.9047 35.2C29.606 34.8018 29.1864 34.6027 28.646 34.6027C28.1055 34.6027 27.6789 34.8018 27.366 35.2C27.0673 35.584 26.854 36.1671 26.726 36.9493C26.598 37.7173 26.534 38.6844 26.534 39.8507Z" fill="#2563EB"/>
</svg>
