<svg width="60" height="60" viewBox="0 0 60 60" fill="none" xmlns="http://www.w3.org/2000/svg">
<g clip-path="url(#clip0_14_1411)">
<path fill-rule="evenodd" clip-rule="evenodd" d="M26.364 47.527V40.1678C26.364 39.6455 25.939 39.2205 25.4167 39.2205C24.8937 39.2205 24.4693 39.6455 24.4693 40.1678V47.527C24.4693 48.05 24.8937 48.4743 25.4167 48.4743C25.9389 48.4744 26.364 48.05 26.364 47.527ZM19.4355 40.1679V47.5271C19.4355 48.0501 19.86 48.4744 20.3829 48.4744C20.9058 48.4744 21.3302 48.05 21.3302 47.5271V40.1679C21.3302 39.6456 20.9058 39.2206 20.3829 39.2206C19.86 39.2205 19.4355 39.6455 19.4355 40.1679Z" fill="#2563EB"/>
<path fill-rule="evenodd" clip-rule="evenodd" d="M16.7032 48.4745H29.0954C29.6184 48.4745 30.0427 48.0501 30.0427 47.5272C30.0427 47.0042 29.6183 46.5798 29.0954 46.5798H16.7032C16.1803 46.5798 15.7559 47.0043 15.7559 47.5272C15.7558 48.0501 16.1802 48.4745 16.7032 48.4745Z" fill="#2563EB"/>
<path fill-rule="evenodd" clip-rule="evenodd" d="M39.0319 39.2205H2.9574C2.42242 39.2205 1.98859 38.7873 1.98859 38.2523V9.24323C1.98859 8.70825 2.42252 8.27501 2.9574 8.27501H12.2814C12.8043 8.27501 13.2287 7.85059 13.2287 7.32769C13.2287 6.80479 12.8043 6.38037 12.2814 6.38037C12.2814 6.38037 6.16642 6.38037 2.9574 6.38037C1.37593 6.38027 0.09375 7.66176 0.09375 9.24323V38.2523C0.09375 39.8337 1.37583 41.1152 2.9573 41.1152H39.0318C39.5548 41.1152 39.9791 40.6908 39.9791 40.1679C39.9792 39.6455 39.5548 39.2205 39.0319 39.2205ZM43.8085 20.594V29.2789C43.8085 29.8012 44.2329 30.2262 44.7558 30.2262C45.2788 30.2262 45.7032 29.8012 45.7032 29.2789V20.594C45.7032 20.071 45.2787 19.6467 44.7558 19.6467C44.2329 19.6466 43.8085 20.071 43.8085 20.594Z" fill="#2563EB"/>
<path fill-rule="evenodd" clip-rule="evenodd" d="M38.8563 31.6079H1.04107C0.518072 31.6079 0.09375 32.0317 0.09375 32.5552V38.2521C0.09375 39.0113 0.39562 39.7395 0.932487 40.2769C1.46935 40.8138 2.19753 41.1151 2.9573 41.1151H39.0318C39.5548 41.1151 39.9791 40.6907 39.9791 40.1678C39.9791 39.6455 39.5547 39.2204 39.0318 39.2204H2.9573C2.70021 39.2204 2.45392 39.1188 2.27203 38.9369C2.09073 38.7556 1.98849 38.5093 1.98849 38.2523V33.5028H38.8563C39.3792 33.5028 39.8036 33.0784 39.8036 32.5555C39.8036 32.0326 39.3792 31.6079 38.8563 31.6079Z" fill="#2563EB"/>
<path fill-rule="evenodd" clip-rule="evenodd" d="M44.756 28.3313C40.3975 28.3313 36.8594 31.8694 36.8594 36.228C36.8594 40.5865 40.3975 44.1246 44.756 44.1246C49.1146 44.1246 52.6533 40.5865 52.6533 36.228C52.6533 31.8694 49.1145 28.3313 44.756 28.3313ZM44.756 30.226C48.0687 30.226 50.7586 32.9153 50.7586 36.228C50.7586 39.5406 48.0687 42.2299 44.756 42.2299C41.4434 42.2299 38.7541 39.5406 38.7541 36.228C38.7541 32.9153 41.4434 30.226 44.756 30.226Z" fill="#2563EB"/>
<path d="M44.756 30.226C48.0687 30.226 50.7586 32.9153 50.7586 36.228C50.7586 39.5406 48.0687 42.2299 44.756 42.2299C41.4434 42.2299 38.7541 39.5406 38.7541 36.228C38.7541 32.9153 41.4434 30.226 44.756 30.226Z" fill="#A8C1F7"/>
<path fill-rule="evenodd" clip-rule="evenodd" d="M32.4516 60.0001C38.1699 60.0001 51.3466 60.0001 57.0655 59.9812C58.04 59.9812 58.9488 59.4784 59.4699 58.651C59.9904 57.823 60.0491 56.786 59.6253 55.9049C59.6247 55.9036 59.6247 55.903 59.624 55.9017C56.9487 50.3855 51.2935 46.5796 44.7567 46.5796C38.221 46.5796 32.5672 50.3842 29.8735 55.8903C29.8722 55.8922 29.8716 55.8941 29.8703 55.8959C29.444 56.7833 29.5034 57.8279 30.0276 58.661C30.5518 59.4948 31.4671 60.0001 32.4516 60.0001ZM32.4516 58.1053C32.4516 58.1053 32.4516 58.1053 32.451 58.1053C32.1182 58.1053 31.8088 57.9341 31.6312 57.6525C31.4544 57.3714 31.4342 57.019 31.5775 56.719C33.9637 51.8445 38.9695 48.4744 44.7567 48.4744C50.5432 48.4744 55.5491 51.8439 57.9182 56.7267C58.0591 57.0203 58.0394 57.3665 57.8658 57.6425C57.6921 57.9185 57.3883 58.0865 57.0624 58.0865C57.0611 58.0865 57.0599 58.0865 57.0592 58.0865C51.3422 58.1053 38.1687 58.1053 32.4516 58.1053Z" fill="#2563EB"/>
<path fill-rule="evenodd" clip-rule="evenodd" d="M24.9571 10.62V2.86296C24.9571 2.32798 25.3911 1.89474 25.926 1.89474H46.984C47.2404 1.89474 47.4867 1.99708 47.6687 2.17828C47.8506 2.36017 47.9523 2.60646 47.9523 2.86296V15.2154C47.9523 15.4718 47.8506 15.718 47.6687 15.9C47.4868 16.0813 47.2405 16.1836 46.984 16.1836H33.0161C32.4938 16.1836 32.0688 16.608 32.0688 17.1309C32.0688 17.6538 32.4938 18.0782 33.0161 18.0782H46.984C47.7432 18.0782 48.4714 17.7763 49.0083 17.2395C49.5451 16.7026 49.847 15.9744 49.847 15.2153C49.847 12.101 49.847 5.97716 49.847 2.86286C49.847 2.10368 49.5451 1.3755 49.0083 0.838638C48.4715 0.30187 47.7433 0 46.9841 0C42.3471 0 30.5625 0 25.9261 0C24.3446 0 23.0625 1.28208 23.0625 2.86296V10.62C23.0625 11.1429 23.4875 11.5674 24.0098 11.5674C24.5327 11.5674 24.9571 11.1429 24.9571 10.62Z" fill="#2563EB"/>
<path fill-rule="evenodd" clip-rule="evenodd" d="M42.5734 4.40845H34.4317C33.9087 4.40845 33.4844 4.83287 33.4844 5.35577C33.4844 5.87866 33.9088 6.30308 34.4317 6.30308H42.5734C43.0957 6.30308 43.5207 5.87866 43.5207 5.35577C43.5207 4.83287 43.0957 4.40845 42.5734 4.40845Z" fill="#2563EB"/>
<path fill-rule="evenodd" clip-rule="evenodd" d="M42.5741 8.0918H35.9981C35.4751 8.0918 35.0508 8.51622 35.0508 9.03912C35.0508 9.56201 35.4752 9.98643 35.9981 9.98643H42.5741C43.0964 9.98643 43.5214 9.56201 43.5214 9.03912C43.5215 8.51622 43.0965 8.0918 42.5741 8.0918Z" fill="#2563EB"/>
<path fill-rule="evenodd" clip-rule="evenodd" d="M42.5723 11.7751H37.8165C37.2935 11.7751 36.8691 12.1996 36.8691 12.7225C36.8691 13.2455 37.2936 13.6698 37.8165 13.6698H42.5723C43.0946 13.6698 43.5196 13.2454 43.5196 12.7225C43.5196 12.1996 43.0946 11.7751 42.5723 11.7751Z" fill="#2563EB"/>
<path fill-rule="evenodd" clip-rule="evenodd" d="M16.2972 2.98047C13.5277 2.98047 11.2793 5.22889 11.2793 7.99833C11.2793 10.7678 13.5277 13.0169 16.2972 13.0169C19.0673 13.0169 21.3157 10.7679 21.3157 7.99833C21.3157 5.22879 19.0673 2.98047 16.2972 2.98047ZM16.2972 4.87521C18.0214 4.87521 19.421 6.27478 19.421 7.99833C19.421 9.72256 18.0214 11.1221 16.2972 11.1221C14.5736 11.1221 13.174 9.72256 13.174 7.99833C13.174 6.27478 14.5736 4.87521 16.2972 4.87521Z" fill="#2563EB"/>
<path fill-rule="evenodd" clip-rule="evenodd" d="M23.4389 14.6633H13.4025C10.6767 14.6633 8.34929 16.6301 7.89456 19.3181C7.52383 21.5128 7.08049 24.1346 6.80824 25.7413C6.69966 26.3867 6.88027 27.048 7.3028 27.5477C7.72534 28.0479 8.34741 28.3365 9.00178 28.3365H19.3919C20.6203 28.3365 21.6163 27.3405 21.6163 26.112V20.9697H23.9941C25.2649 20.9697 26.487 20.4783 27.4041 19.5986C28.1664 18.8665 29.1769 17.8977 30.0157 17.0931C30.6188 16.5139 30.9674 15.7193 30.9852 14.8832C31.0022 14.0558 30.6934 13.2549 30.1256 12.6537C30.12 12.6473 30.0959 12.6221 30.0897 12.6164C29.5124 12.024 28.7255 11.6823 27.8981 11.6653C27.0619 11.6476 26.2535 11.9634 25.6497 12.5419L23.4389 14.6633ZM23.8198 16.5581C24.0642 16.5581 24.2992 16.4634 24.4753 16.2941C24.4753 16.2941 25.8174 15.0069 26.9612 13.9092C27.2019 13.6787 27.5245 13.5524 27.8587 13.5593C28.1884 13.5662 28.503 13.7027 28.7328 13.9388C28.7354 13.9413 28.7455 13.9515 28.748 13.954C28.974 14.194 29.0972 14.5135 29.0902 14.8439C29.0833 15.1773 28.9443 15.4944 28.7038 15.7256C27.865 16.5302 26.8551 17.4991 26.0922 18.2311C25.5275 18.7723 24.776 19.0749 23.994 19.0749H20.6688C20.1459 19.0749 19.7215 19.4987 19.7215 20.0222V26.1119C19.7215 26.2938 19.5737 26.4416 19.3918 26.4416H9.00168C8.90508 26.4416 8.81285 26.3986 8.74964 26.3248C8.68713 26.2509 8.66057 26.1524 8.67633 26.057C8.94858 24.4503 9.39192 21.8286 9.76264 19.6338C10.0633 17.8579 11.6012 16.5581 13.4024 16.5581H23.8198Z" fill="#2563EB"/>
<path d="M23.8198 16.5581C24.0642 16.5581 24.2992 16.4634 24.4753 16.2941C24.4753 16.2941 25.8174 15.0069 26.9612 13.9092C27.2019 13.6787 27.5245 13.5524 27.8587 13.5593C28.1884 13.5662 28.503 13.7027 28.7328 13.9388L28.748 13.954C28.974 14.194 29.0972 14.5135 29.0902 14.8439C29.0833 15.1773 28.9443 15.4944 28.7038 15.7256L26.0922 18.2311C25.5275 18.7723 24.776 19.0749 23.994 19.0749H20.6688C20.1459 19.0749 19.7215 19.4987 19.7215 20.0222V26.1119C19.7215 26.2938 19.5737 26.4416 19.3918 26.4416H9.00168C8.90508 26.4416 8.81285 26.3986 8.74964 26.3248C8.68713 26.2509 8.66057 26.1524 8.67633 26.057C8.94858 24.4503 9.39192 21.8286 9.76264 19.6338C10.0633 17.8579 11.6012 16.5581 13.4024 16.5581H23.8198Z" fill="#A8C1F7"/>
<path fill-rule="evenodd" clip-rule="evenodd" d="M12.657 27.5469L13.6624 21.6019C13.7496 21.0859 13.4016 20.597 12.8862 20.5099C12.3708 20.4221 11.8813 20.77 11.7942 21.2855L10.7888 27.2312C10.7016 27.7465 11.0496 28.2361 11.565 28.3231C12.0804 28.4103 12.5699 28.0629 12.657 27.5469Z" fill="#2563EB"/>
<path fill-rule="evenodd" clip-rule="evenodd" d="M30.4192 13.7344L32.403 8.32489C32.583 7.83349 32.3304 7.2891 31.8397 7.10909C31.3483 6.92907 30.8039 7.18171 30.6239 7.6725L28.6401 13.082C28.4601 13.5734 28.7127 14.1178 29.2034 14.2978C29.6948 14.4777 30.2392 14.2251 30.4192 13.7344Z" fill="#2563EB"/>
<path fill-rule="evenodd" clip-rule="evenodd" d="M21.586 37.3092H24.2115C24.7344 37.3092 25.1588 36.8848 25.1588 36.3619C25.1588 35.8389 24.7344 35.4146 24.2115 35.4146H21.586C21.0631 35.4146 20.6387 35.839 20.6387 36.3619C20.6387 36.8848 21.0631 37.3092 21.586 37.3092Z" fill="#2563EB"/>
</g>
<defs>
<clipPath id="clip0_14_1411">
<rect width="60" height="60" fill="white"/>
</clipPath>
</defs>
</svg>
