<svg width="80" height="80" viewBox="0 0 80 80" fill="none" xmlns="http://www.w3.org/2000/svg">
<g clip-path="url(#clip0_14_1563)">
<path d="M75.0225 13.927C77.5985 9.46532 76.7275 4.13983 73.077 2.03217C69.4265 -0.075485 64.379 1.83282 61.803 6.29448C59.2269 10.7562 60.098 16.0816 63.7484 18.1893C67.3989 20.297 72.4464 18.3887 75.0225 13.927Z" fill="#5182EF"/>
<path d="M75.3752 12.8921C75.9191 12.8768 76.2638 13.479 75.9666 13.9348C73.0942 18.3385 68.0889 22.0482 63.207 19.1274C64.0708 19.626 65.555 19.0467 67.2242 17.1392C67.6375 16.6732 68.0475 16.1706 68.4508 15.6296C69.6814 13.979 71.6131 12.9979 73.6713 12.9401L75.3752 12.8921Z" fill="#5182EF"/>
<path d="M62.5227 5.47186C62.264 4.99327 61.5702 4.99577 61.3241 5.48108C58.9465 10.1705 58.2365 16.3601 63.207 19.1275C62.3432 18.6289 62.103 17.0537 62.9202 14.6544C63.1171 14.0634 63.3474 13.457 63.6143 12.8373C64.4284 10.9462 64.3123 8.78264 63.3332 6.97139L62.5227 5.47186Z" fill="#5182EF"/>
<path d="M69.1421 8.84611C67.2348 7.74486 63.4849 12.2286 62.5427 14.4367C61.546 16.7727 62.1909 18.5422 63.2057 19.1281C64.2205 19.7141 66.0754 19.3877 67.6001 17.3566C69.0413 15.4367 71.0494 9.94736 69.1421 8.84611Z" fill="#7CA1F3"/>
<path d="M29.8685 55.8347L13.3722 65.3587C12.8386 65.6669 12.1736 65.2647 12.1997 64.6491C12.705 52.7478 15.8581 41.0453 21.507 30.4205C20.1274 29.6876 18.7477 28.9533 17.368 28.2205C14.1391 34.2931 11.6827 40.6991 10.02 47.2908C9.84876 47.9694 8.93704 48.0931 8.5872 47.487L5.54564 42.2187C4.89845 41.0978 3.46501 40.7137 2.34407 41.3609C1.22314 42.0081 0.839074 43.4416 1.48626 44.5625L7.99157 55.8301C8.16423 56.1294 8.23157 56.4772 8.18579 56.8195C7.31204 63.3647 7.20079 70.0195 7.87689 76.6497C7.99798 77.8369 8.96064 78.7967 10.1536 78.8275C11.5766 78.8644 12.6895 77.6419 12.5453 76.2356C12.4141 74.9576 12.3155 73.6787 12.2466 72.3998C12.2152 71.8155 12.5192 71.2641 13.0261 70.9715L32.2127 59.8942L29.8685 55.8347Z" fill="#E4996D"/>
<path d="M23.0939 22.5625C22.7271 22.4479 14.0782 19.6792 11.6261 12.9423C10.8897 10.9189 10.9097 8.54279 11.6814 6.42294C12.5349 4.07826 14.1629 2.3656 16.2652 1.60044C18.3675 0.835288 20.7157 1.10076 22.8764 2.34826C24.83 3.47607 26.3729 5.28341 27.1093 7.30685C29.5613 14.0436 24.7155 21.724 24.5082 22.0476L23.9974 22.8445L23.0939 22.5625Z" fill="#A8C1F7"/>
<path d="M23.2668 23.3945C22.9063 23.5281 14.4143 26.7457 12.3182 33.6017C11.6887 35.6609 11.8331 38.0328 12.7146 40.1092C13.6896 42.4059 15.4049 44.0311 17.5446 44.6851C19.6843 45.3393 22.0151 44.9512 24.1077 43.5923C25.9996 42.3637 27.4457 40.4781 28.0752 38.4189C30.1713 31.5629 24.9302 24.1468 24.7062 23.8345L24.1543 23.0654L23.2668 23.3945Z" fill="#A8C1F7"/>
<path d="M24.9108 22.7959C25.2728 22.6666 33.8463 19.6728 39.8589 23.5775C41.6648 24.7503 43.0788 26.6602 43.7383 28.8173C44.4677 31.2034 44.1983 33.5509 42.9797 35.4273C41.7611 37.3038 39.7261 38.5047 37.2497 38.8089C35.0106 39.0839 32.6909 38.5689 30.885 37.3963C24.8725 33.4917 24.1203 24.4417 24.0911 24.0584L24.0195 23.1147L24.9108 22.7959Z" fill="#A8C1F7"/>
<path d="M25.2318 23.0998C25.6054 23.1905 34.4448 25.2716 40.0163 20.7601C41.6898 19.4049 42.8963 17.3579 43.3267 15.1434C43.8027 12.6941 43.2893 10.3876 41.8813 8.64883C40.4734 6.91008 38.324 5.92836 35.8292 5.88477C33.5737 5.84539 31.3204 6.59992 29.647 7.95508C24.0756 12.4668 24.2734 21.5459 24.2845 21.9301L24.312 22.8762L25.2318 23.0998Z" fill="#A8C1F7"/>
<path d="M23.2162 23.8332C22.9884 24.1429 17.5547 31.419 10.3867 31.5441C8.23374 31.5818 5.99359 30.7891 4.24046 29.3694C2.3014 27.7991 1.21202 25.7024 1.17296 23.4654C1.1339 21.2283 2.14937 19.0948 4.03249 17.4577C5.73499 15.9777 7.94609 15.1074 10.0991 15.0698C17.267 14.9446 22.9514 22.0268 23.1898 22.3282L23.777 23.0707L23.2162 23.8332Z" fill="#A8C1F7"/>
<path d="M28.3823 32.8431L28.4929 31.8362C28.8859 28.2579 31.0146 25.102 34.1851 23.3972L35.0773 22.9175C35.6476 22.6107 35.6187 21.7833 35.0284 21.5172L34.1049 21.1007C30.8232 19.6212 28.4796 16.6215 27.8379 13.0793L27.6573 12.0826C27.5418 11.4454 26.7459 11.2173 26.3104 11.6964L25.6292 12.4461C23.2079 15.11 19.6309 16.412 16.0637 15.9276L15.0599 15.7914C14.4184 15.7042 13.9552 16.3907 14.2765 16.9529L14.7788 17.8326C16.5642 20.9586 16.697 24.7629 15.1342 28.0057L14.6943 28.9182C14.4132 29.5015 14.9229 30.154 15.557 30.0223L16.5488 29.8164C20.0735 29.0843 23.7326 30.1336 26.3338 32.6222L27.0659 33.3225C27.5335 33.77 28.3117 33.4867 28.3823 32.8431Z" fill="#5182EF"/>
<path d="M27.1164 29.5275L27.2163 28.618C27.4408 26.5732 28.6572 24.7699 30.4689 23.7957L31.2749 23.3624C31.8 23.08 31.7733 22.3182 31.2299 22.073L30.3956 21.6969C28.5203 20.8514 27.1811 19.1374 26.8145 17.1132L26.6514 16.2128C26.5452 15.6261 25.8124 15.4161 25.4113 15.8572L24.7958 16.5342C23.4122 18.0564 21.3681 18.8005 19.3299 18.5236L18.4231 18.4005C17.8324 18.3203 17.4061 18.9524 17.7017 19.47L18.1555 20.2646C19.1756 22.0508 19.2516 24.2247 18.3584 26.0778L17.9613 26.9021C17.7024 27.4391 18.1717 28.0399 18.7555 27.9186L19.6514 27.7325C21.6655 27.3142 23.7564 27.9138 25.2428 29.3358L25.9039 29.9683C26.3349 30.381 27.0513 30.1202 27.1164 29.5275Z" fill="#7CA1F3"/>
<path d="M49.2184 65.3326C47.8512 68.5576 45.3967 72.3476 43.0201 74.3663C40.6436 76.3835 34.7756 76.0013 31.9834 76.503C30.8225 75.6108 30.1334 74.1952 29.9756 72.4249C29.9334 71.9577 29.6771 71.5327 29.285 71.2749C28.9803 71.0733 28.7021 70.839 28.4521 70.5718C27.1412 69.1655 26.785 67.0108 27.4506 64.5046C28.0521 62.2405 29.4334 59.9733 31.2428 58.2874C37.2646 52.6718 46.1443 52.8312 46.5193 52.8405L47.0865 52.8546C49.7132 56.5569 50.9137 61.3372 49.2184 65.3326Z" fill="#FFF8E6"/>
<path d="M47.0881 52.8528L47.4431 52.862L50.5203 55.1809L50.797 56.0625C50.9088 56.4206 53.5091 64.9128 49.7716 72.2483C48.6488 74.4523 46.8503 76.4054 44.8391 77.6073C42.6139 78.9376 40.4458 79.1898 38.7309 78.3162C38.4081 78.1517 38.1088 77.9508 37.8331 77.7154C37.4722 77.4075 36.9883 77.2756 36.5222 77.3648C34.7448 77.7054 33.1695 77.4145 31.9844 76.5033C31.9845 76.5023 31.9845 76.5028 31.9847 76.5018C37.5664 75.4998 42.9134 71.1536 45.65 64.705C47.3456 60.7103 47.7648 56.5556 47.0881 52.8528Z" fill="#FFF1CF"/>
<path d="M67.788 76.5577C66.6099 77.428 65.0599 77.6998 63.3162 77.3639C62.8552 77.2748 62.3755 77.4045 62.0193 77.7092C61.7412 77.9483 61.4396 78.1514 61.1146 78.317C59.4005 79.1905 57.2318 78.9389 55.0068 77.6077C52.9943 76.4061 51.1974 74.453 50.074 72.2483C46.3365 64.9123 48.9365 56.4202 49.049 56.0623L49.2193 55.5202C53.3083 54.2373 59.7985 55.477 63.1704 58.2083C68.6157 62.6161 69.6433 70.9081 67.788 76.5577Z" fill="#FFF8E6"/>
<path d="M49.2188 55.5201L49.3255 55.1815L52.4027 52.8626L53.3264 52.8396C53.7014 52.831 62.5814 52.6721 68.6025 58.2868C70.4117 59.9737 71.7934 62.2409 72.3944 64.5054C73.0597 67.011 72.7047 69.1648 71.3922 70.5724C71.145 70.8373 70.8694 71.0698 70.5672 71.2699C70.1717 71.5321 69.9114 71.9609 69.8688 72.4334C69.7063 74.2357 68.9923 75.6698 67.7897 76.5579C67.7889 76.5574 67.7892 76.5578 67.7884 76.5571C68.3638 70.9156 65.6597 64.5776 60.2153 60.1696C56.8428 57.4385 52.9645 55.8904 49.2188 55.5201Z" fill="#FFF1CF"/>
<path d="M36.6743 53.909C29.6946 53.2981 22.736 48.7943 21.2848 42.6621C21.2832 42.6621 21.2832 42.6621 21.2832 42.6621C21.7738 41.2825 22.9066 40.1887 24.541 39.4918C24.9723 39.309 25.2973 38.9325 25.4223 38.4809C25.5191 38.1278 25.6566 37.7903 25.8332 37.4715C26.766 35.7887 28.7051 34.784 31.2926 34.6434C33.6332 34.5153 36.216 35.1293 38.3785 36.3293C45.5801 40.32 48.1738 48.8137 48.2801 49.1747L48.441 49.7184C45.129 52.8767 40.9977 54.2871 36.6743 53.909Z" fill="#FFF8E6"/>
<path d="M48.4427 49.7186L48.5437 50.0591L47.2891 53.7022L46.5362 54.2378C46.2301 54.4547 38.9571 59.552 30.8255 58.2642C28.3824 57.8775 25.9691 56.7705 24.2044 55.2292C22.2516 53.5241 21.3418 51.54 21.6427 49.6391C21.6994 49.2813 21.798 48.9344 21.9366 48.5995C22.118 48.1611 22.094 47.66 21.8649 47.2444C20.9918 45.6592 20.7816 44.0711 21.2821 42.6625C21.283 42.6625 21.2826 42.6625 21.2835 42.6624C23.9613 47.6613 29.7472 51.4034 36.7257 52.0134C41.0494 52.3916 45.1302 51.5063 48.4427 49.7186Z" fill="#FFF1CF"/>
<path d="M78.2012 49.6405C78.5027 51.5405 77.5934 53.5249 75.6402 55.2295C73.8762 56.7717 71.4621 57.878 69.0199 58.2639C60.8871 59.553 53.6137 54.4561 53.309 54.2374L52.8449 53.9077C52.6012 50.0014 55.8518 43.7752 59.4924 41.4111C65.3674 37.5955 72.7227 38.8811 78.5902 42.7483H78.5918C79.0559 44.1374 78.834 45.6952 77.9762 47.2514C77.7496 47.6624 77.7246 48.1577 77.9043 48.592C78.0449 48.9295 78.1449 49.2795 78.2012 49.6405Z" fill="#FFF8E6"/>
<path d="M52.8444 53.9091L52.5553 53.703L51.3008 50.0599L51.5644 49.1742C51.672 48.8149 54.265 40.3205 61.4656 36.3291C63.6289 35.1297 66.2122 34.5163 68.5516 34.6444C71.1402 34.786 73.0788 35.7891 74.0119 37.4724C74.1875 37.7892 74.3233 38.1233 74.4203 38.4725C74.5473 38.9297 74.8748 39.3097 75.3111 39.4963C76.975 40.2078 78.1183 41.3299 78.5912 42.7481C78.5905 42.7488 78.5909 42.7484 78.5902 42.7491C73.4025 40.4586 66.5391 41.0717 60.6644 44.8875C57.0247 47.251 54.3539 50.4611 52.8444 53.9091Z" fill="#FFF1CF"/>
<path d="M61.5219 36.4576C60.0922 44.5654 52.9047 49.7826 52.6 50.0014L52.1375 50.3326C47.7664 48.1553 44.5497 44.0954 43.4997 39.8845C41.8044 33.0876 44.7486 25.7726 49.9672 22.3561C49.9672 22.3561 49.9672 22.3561 49.9672 22.3545C51.4312 22.3686 52.8344 23.0857 54.025 24.4029C54.3391 24.7514 54.8 24.9357 55.2687 24.9076C55.6328 24.8842 55.9969 24.9045 56.3562 24.967C58.2515 25.3014 59.8312 26.8076 60.8078 29.2092C61.6906 31.3795 61.9515 34.0217 61.5219 36.4576Z" fill="#FFF8E6"/>
<path d="M52.1374 50.3327L51.8483 50.5389H47.9952L47.2436 50.0014C46.939 49.7827 39.7515 44.5655 38.3218 36.4577C37.8921 34.0217 38.153 31.3796 39.0358 29.2092C40.0124 26.8077 41.5921 25.3014 43.4874 24.9671C43.8441 24.9042 44.2043 24.8846 44.566 24.9064C45.0396 24.9352 45.5055 24.7492 45.824 24.3975C47.0385 23.0558 48.4716 22.3402 49.9665 22.3547C49.9669 22.3556 49.9666 22.3552 49.9671 22.356C46.1124 26.5153 44.4577 33.2044 46.153 40.0013C47.203 44.2124 49.3686 47.7827 52.1374 50.3327Z" fill="#FFF1CF"/>
<path d="M58.9556 56.2827L55.4931 56.7858C54.4462 56.9389 53.5087 57.478 52.8556 58.2811C48.44 57.5221 46.7148 53.9717 46.7148 50.5389C46.7148 49.1514 47.4861 47.0683 49.3259 46.0671C50.1869 46.1889 51.0775 46.0436 51.8666 45.628L54.9634 43.9999C55.6791 43.6233 56.5166 44.2311 56.3791 45.028L55.7884 48.4764C55.5556 49.8327 56.0041 51.2171 56.99 52.1764L59.4962 54.6186C60.0744 55.1842 59.7556 56.1671 58.9556 56.2827Z" fill="#5182EF"/>
<path d="M52.8554 58.2811C52.657 58.5233 52.4851 58.7874 52.3445 59.0733L50.796 62.2108C50.4382 62.9358 49.4038 62.9358 49.046 62.2108L47.4976 59.0733C46.8882 57.8389 45.7117 56.9842 44.3492 56.7858L40.8867 56.2827C40.0867 56.1671 39.7679 55.1842 40.346 54.6186L42.8523 52.1764C43.8382 51.2171 44.2867 49.8327 44.0538 48.4764L43.4632 45.028C43.3257 44.2311 44.1632 43.6233 44.8788 43.9999L47.9757 45.628C48.4023 45.853 48.8601 45.9999 49.3257 46.0671C48.821 47.2717 48.5413 48.5936 48.5413 49.9811C48.5413 53.4139 50.246 56.4483 52.8554 58.2811Z" fill="#7CA1F3"/>
<path d="M49.9219 38.4902C51.432 38.4902 52.6562 37.266 52.6562 35.7559C52.6562 34.2457 51.432 33.0215 49.9219 33.0215C48.4117 33.0215 47.1875 34.2457 47.1875 35.7559C47.1875 37.266 48.4117 38.4902 49.9219 38.4902Z" fill="#5182EF"/>
<path d="M65.9062 49.8027C67.4164 49.8027 68.6406 48.5785 68.6406 47.0684C68.6406 45.5582 67.4164 44.334 65.9062 44.334C64.3961 44.334 63.1719 45.5582 63.1719 47.0684C63.1719 48.5785 64.3961 49.8027 65.9062 49.8027Z" fill="#5182EF"/>
<path d="M33.9395 49.8025C35.4496 49.8025 36.6738 48.5783 36.6738 47.0681C36.6738 45.558 35.4496 44.3337 33.9395 44.3337C32.4293 44.3337 31.2051 45.558 31.2051 47.0681C31.2051 48.5783 32.4293 49.8025 33.9395 49.8025Z" fill="#5182EF"/>
<path d="M59.7598 68.5625C61.2699 68.5625 62.4941 67.3383 62.4941 65.8281C62.4941 64.318 61.2699 63.0938 59.7598 63.0938C58.2496 63.0938 57.0254 64.318 57.0254 65.8281C57.0254 67.3383 58.2496 68.5625 59.7598 68.5625Z" fill="#5182EF"/>
<path d="M40.084 68.5625C41.5941 68.5625 42.8184 67.3383 42.8184 65.8281C42.8184 64.318 41.5941 63.0938 40.084 63.0938C38.5738 63.0938 37.3496 64.318 37.3496 65.8281C37.3496 67.3383 38.5738 68.5625 40.084 68.5625Z" fill="#5182EF"/>
<path d="M13.426 23.2526C13.4371 23.8927 13.9596 24.404 14.5974 24.404C14.6042 24.404 14.6111 24.404 14.6181 24.4038L17.7088 24.3499C17.6263 24.7676 17.4919 25.1779 17.3027 25.5702L16.9055 26.3945C16.5906 27.0477 16.6724 27.8085 17.1189 28.3799C17.5655 28.9513 18.2836 29.2146 18.9938 29.0673L19.8896 28.8812C20.3191 28.7921 20.7527 28.7613 21.1808 28.7832L20.4841 31.0623C20.2949 31.6812 20.6433 32.3363 21.2621 32.5256C21.3763 32.5604 21.4916 32.5771 21.605 32.5771C22.1067 32.5771 22.571 32.2523 22.7253 31.7476L23.4313 29.4388C23.7903 29.6429 24.1272 29.892 24.4327 30.184L25.0938 30.8165C25.4536 31.1607 25.9194 31.3427 26.3966 31.3427C26.6144 31.3427 26.8344 31.3049 27.0478 31.2271C27.7292 30.9791 28.2017 30.3774 28.2811 29.6566L28.381 28.747C28.4271 28.327 28.525 27.9196 28.6689 27.5324L30.6938 28.8474C30.891 28.9754 31.1122 29.0366 31.331 29.0366C31.7146 29.0366 32.0903 28.8485 32.3149 28.5029C32.6674 27.9601 32.5131 27.2343 31.9703 26.8818L29.9714 25.5837C30.2853 25.2918 30.6374 25.0366 31.0238 24.8288L31.8294 24.3956C32.468 24.0523 32.8491 23.3887 32.8239 22.664C32.7988 21.9393 32.3724 21.3038 31.7111 21.0057L30.8771 20.6296C30.4797 20.4506 30.113 20.2224 29.7813 19.9556L32.1824 18.0109C32.6853 17.6035 32.7627 16.8656 32.3553 16.3626C31.948 15.8596 31.2102 15.7821 30.7071 16.1896L28.343 18.1045C28.1707 17.726 28.0431 17.3241 27.9674 16.9056L27.8042 16.0052C27.675 15.2916 27.1616 14.7243 26.4646 14.5243C25.7674 14.3248 25.0316 14.5337 24.5439 15.0702L23.9285 15.7473C23.6386 16.0662 23.3127 16.3421 22.9608 16.5735L21.7755 13.3166C21.5541 12.7084 20.8814 12.3948 20.2735 12.6162C19.6652 12.8376 19.3517 13.5101 19.573 14.1182L20.7583 17.3746C20.3405 17.4234 19.9139 17.4213 19.4875 17.3637L18.581 17.2406C17.8616 17.1424 17.1641 17.4557 16.7585 18.057C16.3528 18.6582 16.3244 19.4229 16.6841 20.0524L17.1378 20.847C17.3489 21.2165 17.5096 21.6065 17.6208 22.0071L14.5774 22.0601C13.9302 22.0716 13.4147 22.6054 13.426 23.2526ZM26.0513 28.4891C25.4767 27.9399 24.8258 27.4959 24.1274 27.1615L24.785 25.0104L26.6716 26.2356C26.3517 26.9406 26.1383 27.6991 26.0513 28.4891ZM27.9325 21.4529C28.5108 21.9865 29.1755 22.4334 29.9119 22.7656C29.1724 23.1634 28.5191 23.6796 27.966 24.2815L26.0091 23.0107L27.9325 21.4529ZM25.6614 17.3252C25.8089 18.1385 26.0914 18.9077 26.483 19.6109L24.6164 21.1227L23.7767 18.8156C24.4724 18.4287 25.1114 17.9301 25.6614 17.3252ZM21.8803 26.4952C21.5638 26.454 21.2439 26.4315 20.9225 26.4315C20.421 26.4315 19.916 26.4823 19.4149 26.5863C19.7655 25.8585 19.9874 25.089 20.0874 24.3087L22.5621 24.2656L21.8803 26.4952ZM21.5742 19.617L22.4139 21.9238L20.0138 21.9657C19.8619 21.1752 19.5838 20.4045 19.1739 19.6865C19.9835 19.7963 20.793 19.7676 21.5742 19.617Z" fill="#2563EB"/>
<path d="M78.9839 48.1416C78.9395 48.0344 78.9453 47.9122 78.9989 47.815C80.0369 45.9336 80.2731 44.0336 79.6823 42.32C79.0911 40.6055 77.7352 39.2541 75.7586 38.4108C75.6597 38.3688 75.5795 38.275 75.55 38.1686C75.4289 37.727 75.2552 37.3008 75.0339 36.9013C73.8994 34.8545 71.6194 33.6362 68.6137 33.4711C66.7531 33.3692 64.7491 33.6986 62.8888 34.3898C62.9247 32.4358 62.5845 30.4695 61.8914 28.7655C61.4627 27.7109 60.9247 26.8042 60.2972 26.0616C61.0989 24.1813 62.063 22.3369 63.2239 20.4662C64.3839 21.0458 65.5934 21.3367 66.8264 21.3366C68.1648 21.3366 69.5306 20.9947 70.8884 20.3103C73.113 19.1889 75.2648 17.1508 76.9483 14.5702C77.3228 13.9944 77.3463 13.2641 77.0095 12.6637C76.9898 12.6286 76.9689 12.5945 76.9472 12.5611C78.6378 7.96672 77.3052 3.11391 73.663 1.01156C70.0216 -1.09141 65.1527 0.18078 62.0183 3.94187C61.977 3.93984 61.9356 3.93922 61.8941 3.94C61.2064 3.95016 60.587 4.33719 60.2786 4.94797C58.887 7.6925 58.198 10.5733 58.338 13.0597C58.4823 15.6222 59.4828 17.7153 61.2527 19.1973C60.1538 20.965 59.2219 22.7134 58.4278 24.4895C57.8425 24.1584 57.2166 23.927 56.5552 23.8103C56.1038 23.7319 55.6448 23.7066 55.1967 23.7358C55.0814 23.7427 54.9673 23.6981 54.8927 23.6152C53.4533 22.0225 51.7337 21.1806 49.92 21.1806C48.1063 21.1806 46.3869 22.0225 44.9464 23.6163C44.8727 23.6981 44.76 23.7427 44.6483 23.7363C44.1948 23.7072 43.7359 23.7322 43.2819 23.8111C42.94 23.8714 42.6084 23.965 42.2858 24.0838C41.7386 23.5125 41.14 23.0134 40.497 22.5966C40.3195 22.4814 40.1372 22.3716 39.952 22.265C40.2286 22.0766 40.4967 21.8795 40.7531 21.6719C42.6366 20.1473 43.9938 17.8502 44.477 15.3692C45.0206 12.5745 44.4223 9.92641 42.7922 7.91281C41.163 5.90031 38.6975 4.76437 35.8502 4.71437C33.3202 4.67172 30.7939 5.52031 28.9106 7.045C28.7377 7.18484 28.5683 7.33109 28.4019 7.48187C28.3423 7.28828 28.2795 7.09625 28.2108 6.90734C27.3828 4.63094 25.6522 2.6 23.4623 1.33516C20.9963 -0.0876577 18.2983 -0.384064 15.865 0.500467C14.1142 1.13734 12.6309 2.34578 11.5755 3.995C11.2266 4.54016 11.3856 5.26484 11.9308 5.61375C12.4761 5.96281 13.2006 5.80344 13.5495 5.25844C14.3253 4.04625 15.4031 3.16266 16.6661 2.70312C18.4372 2.05937 20.4348 2.29437 22.2905 3.365C24.0105 4.35844 25.3655 5.94156 26.0081 7.70844C26.2806 8.45797 26.4648 9.25969 26.5553 10.0912C26.6208 10.6916 27.1286 11.1363 27.7189 11.1363C27.7612 11.1363 27.8042 11.1339 27.8473 11.1294C28.1769 11.0934 28.4589 10.9237 28.6469 10.6806C28.6505 10.6761 28.6536 10.6731 28.6573 10.6684C29.1722 9.98344 29.753 9.37766 30.3844 8.8675C31.8473 7.68312 33.8225 7.02344 35.8094 7.05797C37.9519 7.09547 39.7848 7.92297 40.9706 9.38766C42.1573 10.8536 42.5855 12.8189 42.1766 14.9216C41.797 16.8703 40.7408 18.6669 39.2784 19.8505C38.585 20.412 37.7923 20.8911 36.9217 21.275C36.9192 21.2759 36.9177 21.2775 36.9153 21.2784C36.4841 21.4513 36.1794 21.8727 36.1794 22.3659C36.1794 22.8886 36.522 23.3313 36.9947 23.4823C37.7978 23.7619 38.5472 24.1255 39.2222 24.5633C39.5753 24.7922 39.912 25.055 40.2305 25.3481C39.3033 26.192 38.5267 27.3444 37.9486 28.7659C37.2553 30.4702 36.9153 32.4364 36.9511 34.3905C35.0908 33.6994 33.0867 33.3702 31.2267 33.4717C28.2219 33.635 25.9416 34.8531 24.8058 36.9022C24.5845 37.3016 24.4111 37.7278 24.2906 38.1666C24.2605 38.2756 24.1802 38.3694 24.0789 38.4123C22.1048 39.2547 20.7489 40.6061 20.1575 42.3206C19.99 42.8062 19.8914 43.3073 19.8563 43.8183C19.1863 43.8444 18.5267 43.7623 17.887 43.5672C16.0841 43.0153 14.6302 41.6253 13.7931 39.6533C13.0173 37.8253 12.8881 35.7452 13.4383 33.9455C13.675 33.1702 14.02 32.4028 14.4637 31.6652C14.4675 31.6589 14.4692 31.6541 14.4727 31.648C14.6283 31.3792 14.6783 31.0502 14.5834 30.7289C14.4 30.1083 13.7481 29.7541 13.1275 29.9372C12.2013 30.2108 11.272 30.3577 10.3658 30.3736C8.48422 30.4078 6.52047 29.7089 4.97797 28.4594C3.31328 27.1125 2.37828 25.3323 2.34531 23.4469C2.31234 21.5625 3.18484 19.7502 4.80203 18.3438C6.29906 17.0419 8.23703 16.2766 10.1198 16.2437C10.9275 16.2298 11.7634 16.3195 12.6014 16.5125C13.232 16.6578 13.8611 16.2642 14.0063 15.6334C14.0803 15.3122 14.0139 14.9917 13.8481 14.735C13.8452 14.7302 13.843 14.7258 13.8397 14.7209C13.3734 14.0208 12.9994 13.288 12.7281 12.5433C12.4269 11.7153 12.2692 10.8205 12.2595 9.88328C12.2528 9.23609 11.7263 8.71437 11.0756 8.72359C10.4284 8.73031 9.90922 9.26047 9.91594 9.9075C9.92844 11.1105 10.1336 12.2669 10.5258 13.345C10.5945 13.5339 10.6698 13.7216 10.7489 13.9084C10.5242 13.8997 10.3005 13.8964 10.0783 13.9003C7.65406 13.9427 5.17031 14.9175 3.26406 16.5753C1.11531 18.4441 -0.0432812 20.8991 0.00203125 23.4878C0.0473437 26.0784 1.29094 28.4911 3.50328 30.2811C5.42172 31.8353 7.86812 32.7188 10.2409 32.7188C10.2963 32.7188 10.3517 32.7183 10.4069 32.7173C10.7366 32.7116 11.0681 32.6902 11.4006 32.6567C11.3273 32.8573 11.2586 33.0586 11.1969 33.2606C10.61 35.1797 10.6206 37.3355 11.2017 39.3416C10.422 41.5459 9.72437 43.805 9.12469 46.075L6.56094 41.6348C6.09172 40.8209 5.33344 40.2389 4.42609 39.9961C3.51984 39.7536 2.5725 39.8783 1.75781 40.3478C0.673437 40.9734 0 42.1406 0 43.393C0 44.0072 0.162813 44.6141 0.471094 45.1492L6.97547 56.413C7.01922 56.4894 7.03609 56.5767 7.02437 56.6644C6.13594 63.3219 6.03047 70.0861 6.71078 76.7703C6.89516 78.567 8.3625 79.955 10.1222 79.9988C10.1531 79.9995 10.1841 80 10.2148 80C11.1911 80 12.125 79.5939 12.7894 78.8775C13.4784 78.1344 13.8144 77.1283 13.7109 76.117C13.5844 74.885 13.4855 73.6136 13.4169 72.3383C13.4092 72.1956 13.4836 72.0616 13.6123 71.9875L26.1884 64.7258C25.6017 67.4159 26.0925 69.7598 27.5933 71.3699C27.9036 71.7016 28.2541 71.9977 28.6383 72.2517C28.733 72.3139 28.7955 72.4172 28.8053 72.5264C28.9959 74.6661 29.8625 76.3737 31.3114 77.4648C32.7598 78.5553 34.6394 78.9178 36.7481 78.512C36.8564 78.4908 36.9738 78.5228 37.0588 78.5956C37.408 78.8956 37.7903 79.1523 38.1952 79.3587C39.0364 79.7873 39.9561 80 40.9239 80C42.3567 80 43.8945 79.5336 45.4358 78.6114C47.1562 77.5842 48.7302 76.055 49.9194 74.288C51.1083 76.0547 52.6822 77.5839 54.4022 78.6108C55.9444 79.5334 57.482 80 58.9152 79.9998C59.8827 79.9998 60.8028 79.7872 61.6436 79.3586C62.0486 79.1522 62.4311 78.8955 62.7778 78.5972C62.865 78.5227 62.9819 78.4912 63.0917 78.512C65.1995 78.9178 67.0789 78.5553 68.5275 77.4645C69.9762 76.3736 70.843 74.6658 71.0334 72.5275C71.0434 72.4169 71.1059 72.3136 71.2034 72.2495C71.5844 71.9977 71.9348 71.7016 72.2469 71.3681C73.8431 69.6559 74.2966 67.1105 73.5238 64.2006C73.0442 62.3978 72.1133 60.597 70.8844 59.0447C72.9409 58.4619 74.8919 57.4345 76.4072 56.1097C78.6752 54.1303 79.7219 51.7666 79.3555 49.4573C79.2858 49.0089 79.1603 48.5653 78.9839 48.1416ZM67.8167 18.8902C68.0683 18.6377 68.3094 18.3597 68.537 18.0564C68.9072 17.5633 69.3519 16.788 69.7659 15.878C70.7719 14.7938 72.1975 14.1494 73.7027 14.1067L74.4333 14.0867C72.7416 16.3945 70.3731 18.4492 67.8167 18.8902ZM72.4906 3.04094C75.1316 4.56547 76.0447 8.21203 74.7553 11.7333L73.6372 11.7641C72.7006 11.7906 71.7853 11.9833 70.9314 12.3202C71.1066 11.3925 71.1561 10.4944 71.0005 9.73328C70.7763 8.63625 70.1844 8.09156 69.7275 7.82766C69.2706 7.56375 68.5031 7.32359 67.4408 7.67797C66.7039 7.92375 65.9508 8.41578 65.2352 9.03125C65.0997 8.12375 64.8089 7.23516 64.3638 6.41094L63.8308 5.42516C66.2364 2.54859 69.8505 1.5164 72.4906 3.04094ZM63.6202 14.893C64.2859 13.3323 66.6442 10.4144 68.1825 9.90125C68.3075 9.85953 68.4077 9.84312 68.4748 9.84312C68.5128 9.84312 68.5403 9.84844 68.5558 9.85719C68.5983 9.88172 68.6631 10.0003 68.7044 10.2023C69.0292 11.7909 67.6813 15.2923 66.6627 16.6492C65.5364 18.1497 64.3055 18.4061 63.7914 18.1094C63.277 17.8128 62.8841 16.6186 63.6202 14.893ZM61.1027 15.0138C60.2067 12.58 60.8019 9.50203 61.9545 6.88297L62.3017 7.52516C63.0172 8.84969 63.1728 10.4052 62.7388 11.8167C62.1566 12.6314 61.7067 13.4053 61.4644 13.9731C61.3156 14.322 61.1956 14.6695 61.1027 15.0138ZM22.373 43.0841C22.7423 42.013 23.6502 41.1427 24.9959 40.5684C25.7488 40.2492 26.3294 39.585 26.5498 38.7888C26.6217 38.5267 26.7247 38.2738 26.8556 38.0373C27.5861 36.7197 29.1834 35.9291 31.3542 35.8111C33.2767 35.7053 35.3923 36.1588 37.2417 37.0595C38.1317 41.5 40.6223 45.0617 42.6731 47.3595L42.8983 48.6719C42.9125 48.7552 42.922 48.8386 42.9292 48.922L37.8416 47.1703C37.885 45.5113 36.8589 43.9406 35.2084 43.3722C33.172 42.6706 30.9444 43.7572 30.2433 45.7939C29.542 47.8305 30.6284 50.0578 32.665 50.7591C33.0848 50.9036 33.5123 50.9722 33.9334 50.9722C35.1678 50.9722 36.3413 50.3809 37.0775 49.3859L42.2048 51.1513C42.1502 51.2144 42.0936 51.2763 42.0331 51.3352L39.5275 53.7775C38.938 54.3522 38.7297 55.1956 38.9841 55.9788C39.0347 56.1347 39.1023 56.2814 39.1834 56.4178C36.8308 57.1211 33.9711 57.5734 31.0059 57.1037C28.7752 56.7513 26.5766 55.7456 24.9733 54.3441C23.3353 52.9144 22.5633 51.3083 22.7997 49.8183C22.8406 49.555 22.915 49.2933 23.0214 49.0377C23.3402 48.2673 23.2933 47.4092 22.8928 46.6828C22.1838 45.398 22.0041 44.1536 22.373 43.0841ZM54.6311 48.2756C54.5481 48.7597 54.5353 49.2459 54.5839 49.723L51.0916 50.9253V47.1453C51.5452 47.0434 51.9891 46.8839 52.4105 46.6623L55.1553 45.2192L54.6311 48.2756ZM55.3256 51.9464C55.5584 52.332 55.8403 52.6917 56.1706 53.0136L58.3913 55.1783L55.3225 55.6242C54.8114 55.6984 54.3217 55.8469 53.8638 56.0566L51.7056 53.1928L55.3256 51.9464ZM49.9197 37.3159C49.0581 37.3159 48.3572 36.615 48.3572 35.7534C48.3572 34.8919 49.0581 34.1909 49.9197 34.1909C50.7812 34.1909 51.4822 34.8919 51.4822 35.7534C51.4822 36.615 50.7812 37.3159 49.9197 37.3159ZM49.9197 54.7175L51.9972 57.4742C51.7227 57.8003 51.485 58.1613 51.2922 58.5522L49.9197 61.333L48.5473 58.5522C48.3544 58.1613 48.1167 57.8003 47.8423 57.4742L49.9197 54.7175ZM48.7478 50.9255L45.2555 49.7231C45.3041 49.2463 45.2913 48.7598 45.2083 48.2758L44.6841 45.2194L47.4287 46.6625C47.8502 46.8841 48.2941 47.0436 48.7477 47.1455V50.9255H48.7478ZM48.1339 53.1928L45.9758 56.0566C45.5178 55.8467 45.028 55.6984 44.517 55.6242L41.4481 55.1783L43.6688 53.0136C43.9989 52.6917 44.2808 52.332 44.5137 51.9464L48.1339 53.1928ZM35.4141 47.5745C35.2781 47.9691 34.9967 48.2872 34.6217 48.4702C34.2466 48.6531 33.8225 48.6789 33.428 48.5431C32.6133 48.2627 32.1787 47.3716 32.4592 46.557C32.6819 45.9103 33.2894 45.5031 33.938 45.5031C34.1064 45.5031 34.2775 45.5306 34.4455 45.5883C35.2598 45.8689 35.6944 46.7598 35.4141 47.5745ZM27.493 61.2661L12.442 69.9569C11.5448 70.4731 11.0216 71.4336 11.0766 72.4636C11.1472 73.7769 11.2491 75.0866 11.3794 76.3558C11.4147 76.7014 11.305 77.0311 11.0705 77.2839C10.8398 77.5327 10.5267 77.6669 10.182 77.6556C9.59641 77.6411 9.10641 77.1575 9.04219 76.5319C8.38047 70.0306 8.48297 63.4506 9.3475 56.9733C9.42609 56.3791 9.30594 55.7663 9.00688 55.2444L2.50125 43.9781C2.39687 43.7967 2.34375 43.5998 2.34375 43.393C2.34375 42.9748 2.56844 42.5855 2.92922 42.3769C3.20109 42.2202 3.51719 42.1784 3.81969 42.2594C4.12156 42.3402 4.37391 42.5339 4.53047 42.8055L7.57328 48.0755C7.97328 48.7663 8.74281 49.1417 9.53406 49.0312C10.3238 48.9214 10.9605 48.3514 11.1566 47.578C11.5939 45.8438 12.0914 44.1131 12.6403 42.4058C13.1663 43.1686 13.7853 43.8288 14.4798 44.3766C12.482 50.9411 11.32 57.7395 11.0292 64.598C10.9984 65.3109 11.3591 65.9834 11.97 66.353C12.2811 66.5411 12.6314 66.6352 12.9816 66.6352C13.3191 66.6352 13.6562 66.5477 13.9578 66.3727L18.8047 63.5742C19.3652 63.2506 19.5572 62.5339 19.2336 61.9734C18.91 61.413 18.193 61.2211 17.6328 61.5445L13.4042 63.9859C13.7252 57.7477 14.787 51.5659 16.5636 45.5803C16.7728 45.6634 16.9847 45.7416 17.2019 45.808C17.9916 46.0487 18.7995 46.1692 19.618 46.1692C19.7895 46.1692 19.9616 46.162 20.1339 46.1514C20.2998 46.7039 20.5342 47.2602 20.8402 47.8147C20.8941 47.9123 20.8997 48.0344 20.8564 48.1388C20.6788 48.5652 20.5533 49.0088 20.4839 49.4542C20.1169 51.7667 21.1637 54.1303 23.4309 56.1092C23.9162 56.5334 24.4466 56.9267 25.0102 57.2852L22.3686 58.81C21.8081 59.1336 21.6159 59.8503 21.9395 60.4108C22.1566 60.7867 22.5505 60.997 22.9555 60.997C23.1542 60.997 23.3558 60.9464 23.5403 60.8398L27.5033 58.5522C27.9781 58.7402 28.4631 58.9055 28.9544 59.0448C28.4025 59.7425 27.9111 60.4905 27.493 61.2661ZM44.2336 76.5995C42.3678 77.7159 40.6014 77.9542 39.2595 77.2705C39.0208 77.1488 38.7944 76.9966 38.5845 76.8163C37.9597 76.2817 37.1072 76.0553 36.3045 76.2108C34.8655 76.4873 33.6263 76.2738 32.7214 75.5925C31.817 74.9116 31.2702 73.7794 31.1398 72.317C31.0661 71.5009 30.6123 70.7444 29.9288 70.295C29.7003 70.1439 29.4905 69.9667 29.3066 69.7702C28.28 68.6691 28.0222 66.905 28.5803 64.8033C29.0817 62.9181 30.1827 61.0284 31.6308 59.5438C32.2602 59.6072 32.8833 59.64 33.4958 59.64C37.0253 59.64 40.2222 58.6698 42.5322 57.7041L44.18 57.9434C44.2898 57.9594 44.3977 57.9822 44.5039 58.0097L41.3881 62.1442C39.8234 61.59 38.0125 62.0805 36.9619 63.4748C35.6658 65.195 36.0106 67.6491 37.7306 68.9453C38.4333 69.4748 39.2581 69.7303 40.0769 69.7303C41.2623 69.7303 42.4344 69.1939 43.2013 68.1764C44.2519 66.7822 44.2242 64.9058 43.26 63.5545L46.3638 59.4359C46.3922 59.4863 46.4197 59.5372 46.4455 59.5894L47.0039 60.7209C46.7322 63.7163 46.8408 67.9098 48.6167 71.9148C47.5861 73.8458 46.0002 75.5448 44.2336 76.5995ZM41.3295 66.7659C41.0784 67.0992 40.7125 67.3148 40.2991 67.3728C39.8858 67.4308 39.4747 67.3245 39.1413 67.0734C38.4533 66.555 38.3152 65.5733 38.8337 64.8852C39.1405 64.4781 39.6092 64.2636 40.0836 64.2636C40.4109 64.2636 40.7411 64.3658 41.022 64.5777C41.71 65.0963 41.848 66.0778 41.3295 66.7659ZM71.2591 64.8028C71.8173 66.9048 71.5594 68.6689 70.5344 69.7684C70.3488 69.9667 70.1389 70.1439 69.9134 70.293C69.227 70.7442 68.7731 71.5008 68.6994 72.3183C68.5692 73.7792 68.0223 74.9112 67.1178 75.5923C66.2131 76.2736 64.9741 76.4873 63.5358 76.2108C62.7323 76.0556 61.8795 76.2817 61.2527 76.818C61.045 76.9964 60.8186 77.1486 60.5797 77.2703C59.2381 77.9542 57.4716 77.7159 55.6047 76.5989C53.7778 75.5081 52.1414 73.7275 51.1153 71.7136C49.7708 69.075 49.3092 66.2606 49.2438 63.8152C49.4578 63.8855 49.6852 63.9239 49.9197 63.9239C50.743 63.9239 51.4808 63.4652 51.8452 62.7269L53.3937 59.5892C53.4195 59.537 53.4469 59.4859 53.4755 59.4358L56.5792 63.5544C55.6152 64.9056 55.5873 66.7819 56.638 68.1761C57.4048 69.1937 58.5767 69.73 59.7623 69.73C60.5808 69.73 61.4061 69.4742 62.1086 68.945C63.8288 67.6488 64.1736 65.1947 62.8773 63.4744C61.8269 62.0803 60.0158 61.5898 58.4513 62.1439L55.3355 58.0094C55.4416 57.9819 55.5495 57.9591 55.6594 57.9431L57.3072 57.7038C59.6173 58.6697 62.8139 59.6398 66.3436 59.6397C66.9559 59.6397 67.5792 59.607 68.2086 59.5434C69.6567 61.0283 70.7577 62.918 71.2591 64.8028ZM58.8173 64.5777C59.5056 64.0591 60.4872 64.197 61.0055 64.8852C61.5239 65.5733 61.3861 66.5548 60.698 67.0734C60.0098 67.592 59.0283 67.4539 58.5098 66.7659C57.9914 66.0778 58.1294 65.0963 58.8173 64.5777ZM76.8192 49.0402C76.9247 49.2933 76.9989 49.555 77.0405 49.8216C77.2764 51.3083 76.5044 52.9144 74.8656 54.3447C73.2631 55.7456 71.0645 56.7513 68.8333 57.1039C65.8683 57.5736 63.0086 57.1213 60.6561 56.4178C60.7372 56.2813 60.8048 56.1347 60.8555 55.9788C61.1098 55.1956 60.9017 54.3522 60.312 53.7775L57.8064 51.3352C57.7459 51.2763 57.6894 51.2144 57.6347 51.1513L62.7603 49.3866C63.1294 49.8875 63.6152 50.2961 64.1905 50.5767C64.732 50.8409 65.3142 50.9741 65.8995 50.9741C66.3277 50.9741 66.7578 50.9027 67.1745 50.7592C68.1611 50.4195 68.9564 49.7161 69.4137 48.7783C69.8712 47.8405 69.9359 46.7806 69.5962 45.7942C69.2566 44.8077 68.5531 44.0123 67.6153 43.555C66.6775 43.0975 65.6175 43.0327 64.6313 43.3725C63.6447 43.7122 62.8494 44.4156 62.392 45.3534C62.1116 45.9284 61.9794 46.5492 61.9969 47.1708L56.9103 48.922C56.9175 48.8386 56.9269 48.7553 56.9413 48.6719L57.167 47.3559C58.3628 46.0169 59.3959 44.6064 60.2366 43.1572C60.5614 42.5973 60.3708 41.8803 59.8109 41.5556C59.2513 41.2306 58.5341 41.4214 58.2094 41.9813C57.8909 42.5302 57.5406 43.0734 57.1623 43.6095C57.0303 43.4263 56.8688 43.2612 56.6786 43.123C56.0123 42.6391 55.1459 42.5764 54.417 42.9595L51.32 44.5877C51.2452 44.627 51.1688 44.6617 51.0917 44.6944V39.4797C52.6748 38.9808 53.8261 37.4991 53.8261 35.7533C53.8261 33.5994 52.0737 31.847 49.9198 31.847C47.7659 31.847 46.0136 33.5994 46.0136 35.7533C46.0136 37.4991 47.1648 38.9808 48.748 39.4797V44.6944C48.6709 44.6617 48.5945 44.627 48.5197 44.5877L45.4227 42.9595C44.6939 42.5763 43.8275 42.6389 43.1611 43.123C42.9711 43.2609 42.8098 43.4258 42.678 43.6086C41.2856 41.6353 39.9822 39.1338 39.4739 36.2514C39.0817 34.0277 39.317 31.6209 40.1195 29.648C40.9388 27.6334 42.2064 26.3798 43.6863 26.1189C43.9556 26.0722 44.2289 26.0572 44.5028 26.0747C45.3359 26.1255 46.1323 25.8005 46.6862 25.1859C47.6691 24.0984 48.7872 23.5236 49.9198 23.5236C51.0525 23.5236 52.1708 24.0984 53.1525 25.1847C53.7073 25.8003 54.5041 26.1252 55.342 26.0742C55.6112 26.0569 55.8842 26.0719 56.1506 26.1181C57.6333 26.3797 58.9009 27.6333 59.7203 29.648C60.5228 31.6206 60.7581 34.0275 60.3656 36.2523C60.307 36.5859 60.2383 36.9117 60.1611 37.2206C60.0042 37.8486 60.3859 38.4847 61.0139 38.6417C61.642 38.7983 62.2781 38.4169 62.435 37.7889C62.4939 37.553 62.5467 37.308 62.5964 37.06C64.4461 36.1589 66.5625 35.7055 68.4853 35.8108C70.6567 35.9302 72.2545 36.7208 72.9841 38.0367C73.1152 38.2733 73.2181 38.5261 73.2906 38.7908C73.5103 39.5844 74.0909 40.2487 74.8414 40.567C76.1897 41.1422 77.0975 42.0125 77.4669 43.0836C77.8356 44.1531 77.6559 45.3977 76.9469 46.6828C76.5462 47.4092 76.4995 48.2673 76.8192 49.0402ZM64.4984 46.3808C64.6814 46.0058 64.9995 45.7242 65.3941 45.5884C65.5608 45.5309 65.7328 45.5025 65.9041 45.5025C66.1381 45.5025 66.3711 45.5558 66.5877 45.6616C66.9627 45.8445 67.2442 46.1627 67.38 46.5572C67.5159 46.9517 67.49 47.3756 67.307 47.7508C67.1241 48.1258 66.8059 48.4073 66.4114 48.5431C66.0167 48.6792 65.593 48.6531 65.2178 48.4702C64.8428 48.2872 64.5612 47.9691 64.4255 47.5745C64.2895 47.1798 64.3155 46.7559 64.4984 46.3808Z" fill="#2563EB"/>
</g>
<defs>
<clipPath id="clip0_14_1563">
<rect width="80" height="80" fill="white"/>
</clipPath>
</defs>
</svg>
