<svg width="24" height="25" viewBox="0 0 24 25" fill="none" xmlns="http://www.w3.org/2000/svg">
<path d="M16.5862 2.23389H7.41382C4.42859 2.23389 2 4.66248 2 7.64771V16.8202C2 19.8053 4.42859 22.2339 7.41382 22.2339H16.5863C19.5714 22.2339 22 19.8053 22 16.8202V7.64771C22 4.66248 19.5714 2.23389 16.5862 2.23389ZM20.8275 16.8202C20.8275 19.1588 18.9249 21.0614 16.5862 21.0614H7.41382C5.0751 21.0614 3.17249 19.1588 3.17249 16.8202V7.64771C3.17249 5.30899 5.0751 3.40637 7.41382 3.40637H16.5863C18.9249 3.40637 20.8275 5.30899 20.8275 7.64771V16.8202Z" fill="#1A1A1A" stroke="#1A1A1A" stroke-width="0.5"/>
<path d="M12 7.23389C9.24295 7.23389 7 9.47683 7 12.2339C7 14.9909 9.24295 17.2339 12 17.2339C14.7571 17.2339 17 14.9909 17 12.2339C17 9.47683 14.7571 7.23389 12 7.23389ZM12 16.1619C9.8342 16.1619 8.07202 14.3998 8.07202 12.2339C8.07202 10.0681 9.8342 8.3059 12 8.3059C14.1659 8.3059 15.928 10.0681 15.928 12.2339C15.928 14.3998 14.1659 16.1619 12 16.1619Z" fill="#1A1A1A" stroke="#1A1A1A" stroke-width="0.5"/>
<path d="M17.4999 5.23389C16.6728 5.23389 16 5.9068 16 6.73382C16 7.56097 16.6728 8.23389 17.4999 8.23389C18.3271 8.23389 19 7.56097 19 6.73382C19 5.90666 18.3271 5.23389 17.4999 5.23389ZM17.4999 7.14541C17.273 7.14541 17.0883 6.96072 17.0883 6.73382C17.0883 6.50677 17.273 6.32222 17.4999 6.32222C17.727 6.32222 17.9117 6.50677 17.9117 6.73382C17.9117 6.96072 17.727 7.14541 17.4999 7.14541Z" fill="#1A1A1A"/>
</svg>
