<svg width="24" height="25" viewBox="0 0 24 25" fill="none" xmlns="http://www.w3.org/2000/svg">
<path d="M19.071 5.16279C17.1822 3.27404 14.671 2.23389 11.9999 2.23389C11.9998 2.23389 12 2.23389 11.9998 2.23389C9.32898 2.23389 6.81758 3.27416 4.92891 5.16279C3.0402 7.05154 2 9.56275 2 12.2339C2.00008 13.9342 2.43281 15.6054 3.25359 17.0836L2.02164 21.4901C1.96469 21.6939 2.02203 21.9126 2.17164 22.0622C2.32125 22.2118 2.53984 22.2691 2.74375 22.2122L7.15043 20.9802C8.6284 21.8011 10.2995 22.2338 12 22.2339C14.6711 22.2339 17.1823 21.1937 19.0711 19.3049C20.9599 17.4162 22 14.9049 22 12.2338C21.9999 9.56271 20.9597 7.05154 19.071 5.16279ZM11.9999 21.062C10.4239 21.062 8.87691 20.6412 7.52605 19.8452C7.43508 19.7915 7.33227 19.764 7.22859 19.764C7.1757 19.764 7.12266 19.7712 7.07082 19.7857L3.43043 20.8034L4.44816 17.1631C4.49109 17.0096 4.46961 16.8453 4.38871 16.7079C3.5927 15.3569 3.17195 13.8098 3.17188 12.2338C3.17188 9.87576 4.09016 7.65885 5.75758 5.99143C7.425 4.324 9.64191 3.40576 11.9999 3.40576C16.8677 3.40576 20.828 7.36603 20.8281 12.2338C20.8281 17.1017 16.8678 21.062 11.9999 21.062Z" fill="#1A1A1A" stroke="#1A1A1A" stroke-width="0.5"/>
<path d="M15.9807 12.9508C15.6487 12.6187 15.2059 12.4358 14.734 12.4358C14.2621 12.4358 13.8193 12.6187 13.4874 12.9508L13.2356 13.2026C13.1735 13.2647 13.09 13.2989 13.0006 13.2989C12.9111 13.2989 12.8276 13.2647 12.7654 13.2025L11.0318 11.4686C10.9697 11.4065 10.9355 11.323 10.9355 11.2335C10.9355 11.144 10.9696 11.0605 11.0316 10.9985L11.2835 10.7466C11.971 10.059 11.971 8.94027 11.2836 8.25271L10.7798 7.74871C10.4477 7.41669 10.005 7.23389 9.53309 7.23389C9.0612 7.23389 8.61846 7.41672 8.28639 7.74886L7.91079 8.1246C7.11668 8.91886 6.82843 10.1017 7.09905 11.4552C7.35373 12.7288 8.08172 14.0182 9.14894 15.0857C10.4939 16.4307 12.2067 17.2338 13.731 17.2339H13.7312C14.6916 17.2339 15.5139 16.9194 16.1088 16.3243L16.4844 15.9486C17.1719 15.261 17.1719 14.1422 16.4844 13.4546L15.9807 12.9508ZM15.7163 15.1803L15.3406 15.556C14.9538 15.9428 14.3974 16.1473 13.7313 16.1473H13.7311C12.4886 16.1472 11.0628 15.4631 9.9172 14.3174C8.99993 13.3999 8.37743 12.3077 8.16439 11.2421C7.96728 10.2563 8.15005 9.42206 8.67905 8.89293L9.05461 8.51722C9.18146 8.39038 9.35137 8.32051 9.53313 8.32051C9.71495 8.32051 9.88493 8.39038 10.0117 8.51715L10.5154 9.02104C10.7792 9.28497 10.7792 9.71435 10.5154 9.97825L10.2635 10.2302C9.99625 10.4975 9.84908 10.8539 9.84912 11.2337C9.84916 11.6134 9.9964 11.9698 10.2636 12.237L11.9973 13.9709C12.2646 14.2383 12.6209 14.3856 13.0006 14.3856C13.3802 14.3856 13.7365 14.2384 14.0037 13.9711L14.2556 13.7192C14.3824 13.5923 14.5523 13.5225 14.734 13.5225C14.9158 13.5225 15.0857 13.5923 15.2126 13.7192L15.7163 14.223C15.9801 14.4869 15.9802 14.9163 15.7163 15.1803Z" fill="#1A1A1A" stroke="#1A1A1A" stroke-width="0.5"/>
</svg>
